<svg width="32" height="30" viewBox="0 0 32 30" fill="none" xmlns="http://www.w3.org/2000/svg">
<path fill-rule="evenodd" clip-rule="evenodd" d="M26.1689 2.53557C25.8413 2.42741 25.4878 2.60539 25.3796 2.93327C25.2715 3.26091 25.4495 3.61442 25.7771 3.72258C28.7515 4.70427 30.75 7.46989 30.75 10.6042C30.75 13.5588 28.9834 16.1918 26.2493 17.3119C26.249 17.3122 26.2485 17.3124 26.248 17.3127C26.2476 17.3129 26.2471 17.3129 26.2466 17.3132C25.3774 17.6742 24.4805 17.8498 23.5044 17.8498C23.1594 17.8498 22.8794 18.1296 22.8794 18.4748C22.8794 18.82 23.1594 19.0998 23.5044 19.0998C24.1521 19.0998 24.7712 19.0334 25.3723 18.8984C24.8408 19.946 23.8491 21.5446 22.1689 23.1222C19.5454 25.5854 14.6777 28.4601 6.35498 28.2267C5.98926 27.9508 4.92285 27.0671 3.8689 25.4352C2.67407 23.5856 1.25 20.3654 1.25 15.529C1.25 10.6711 1.64502 7.40446 2.49341 5.24821C3.28296 3.24162 4.479 2.13566 6.37158 1.66252C9.31055 0.9279 10.5034 1.30803 10.9863 1.75627C11.4404 2.17766 11.5747 2.94792 11.386 4.04631C11.1274 5.54802 10.6968 6.45964 10.0305 6.91496C9.35498 7.37663 8.31396 7.45573 6.84814 7.15666C6.27563 7.03215 5.56641 6.83977 4.99609 6.65397C4.66797 6.5468 4.31519 6.72648 4.20825 7.05461C4.10132 7.38273 4.28076 7.73552 4.60889 7.84245C5.06372 7.99064 5.60132 8.14274 6.09937 8.26555C6.14111 9.87028 6.52368 14.7626 9.57104 16.9902C8.80054 19.3 9.06128 20.998 9.07349 21.0737C9.12305 21.3805 9.38843 21.5988 9.6897 21.5988C9.7229 21.5988 9.75635 21.5964 9.79028 21.5907C10.1311 21.5356 10.3625 21.2148 10.3074 20.8739C10.3047 20.8573 10.0508 19.2013 10.9075 16.9648C10.908 16.9635 10.9082 16.9621 10.9087 16.9609C10.9092 16.9594 10.9097 16.9584 10.9102 16.9572C11.6804 14.8661 13.0813 13.1032 15.0811 11.7052C15.2407 12.9338 15.6653 14.1125 16.3342 15.1628C16.4534 15.3498 16.6555 15.4521 16.8621 15.4521C16.9768 15.4521 17.093 15.4203 17.1973 15.3542C17.4883 15.1686 17.574 14.7824 17.3884 14.4911C16.6494 13.331 16.2588 11.987 16.2588 10.6042C16.2588 10.6037 16.2588 10.6034 16.2588 10.6032C16.2593 7.4694 18.2573 4.70427 21.2314 3.72258C21.5591 3.61442 21.7373 3.26091 21.6289 2.93303C21.5208 2.60539 21.167 2.42741 20.8396 2.53557C17.4646 3.64958 15.1614 6.72209 15.0161 10.2494C12.7104 11.6947 11.042 13.549 10.0439 15.7731C7.85718 13.913 7.43994 10.1066 7.36255 8.51164C8.81055 8.70573 9.89453 8.52189 10.7356 7.94719C11.7131 7.27897 12.2937 6.14128 12.6177 4.25798C12.8828 2.71696 12.6201 1.56706 11.8364 0.84001C10.79 -0.131182 8.90332 -0.258867 6.06836 0.449873C3.77515 1.02312 2.26953 2.40227 1.33008 4.79045C0.422607 7.09733 0 10.5094 0 15.529C0 20.7118 1.5564 24.1818 2.86206 26.1799C4.2981 28.3774 5.74463 29.3305 5.80566 29.3698C5.90088 29.4318 6.01123 29.4665 6.12476 29.4701C6.52271 29.4836 6.9165 29.4902 7.30664 29.4902C10.741 29.4899 13.8652 28.975 16.6074 27.9555C19.0676 27.0409 21.2266 25.7214 23.0244 24.0334C25.5913 21.6235 26.6733 19.174 26.9839 18.3569C30.0405 16.9862 32 13.9736 32 10.6042C32 6.92937 29.6567 3.68693 26.1689 2.53557Z" fill="white"/>
<path fill-rule="evenodd" clip-rule="evenodd" d="M23.5039 3.3584C23.8481 3.3584 24.1289 3.07764 24.1289 2.7334C24.1289 2.38916 23.8481 2.1084 23.5039 2.1084C23.1597 2.1084 22.8789 2.38916 22.8789 2.7334C22.8789 3.07764 23.1597 3.3584 23.5039 3.3584Z" fill="white"/>
</svg>
