<svg width="31" height="32" viewBox="0 0 31 32" fill="none" xmlns="http://www.w3.org/2000/svg">
<path fill-rule="evenodd" clip-rule="evenodd" d="M29.1222 17.4257C28.0907 18.5052 26.6949 19.1 25.192 19.1C23.7848 19.1 22.4525 18.5677 21.4408 17.6012L21.3771 17.5404L21.601 19.9564L22.1676 26.065C22.1678 26.0655 22.1678 26.066 22.1678 26.0665C22.4437 29.0479 20.2435 31.6983 17.2624 31.9764C17.2614 31.9766 17.2606 31.9766 17.2597 31.9766C14.2773 32.2527 11.6249 30.0516 11.3483 27.0687C11.3483 27.0679 11.3481 27.0672 11.3481 27.0665L10.7817 20.9601L10.6532 19.576L8.07416 23.9012C7.2956 25.2064 5.86201 26.0172 4.33272 26.0172C3.55318 26.0172 2.78731 25.8062 2.11813 25.4071C0.0610061 24.1803 -0.614772 21.5084 0.612029 19.4513L5.34126 11.5209C6.11982 10.2157 7.55341 9.40493 9.0827 9.40493C9.86224 9.40493 10.6279 9.61587 11.2973 10.0148C11.5829 10.1852 11.8407 10.3842 12.0719 10.6049C12.4364 10.2826 12.8403 10.0121 13.2738 9.79971L12.8092 9.35562C10.643 7.28629 10.5641 3.8405 12.6335 1.6745C13.665 0.594669 15.0607 -5.34058e-05 16.5636 -5.34058e-05C17.9708 -5.34058e-05 19.3031 0.532413 20.3148 1.49872L28.9464 9.74429C29.9918 10.7431 30.586 12.0941 30.6192 13.5487C30.6524 15.0033 30.1209 16.38 29.1222 17.4257ZM2.7585 24.3336C3.23409 24.6173 3.77852 24.7672 4.33272 24.7672C5.42426 24.7672 6.44648 24.19 7.00067 23.2608L9.00018 19.9076C8.07465 19.6317 7.10687 19.1991 6.1579 18.6332C5.20893 18.067 4.36812 17.4213 3.6855 16.7382L1.68576 20.0914C0.811979 21.5567 1.29318 23.4596 2.7585 24.3336ZM10.6572 11.0885C10.1813 10.8048 9.63714 10.6549 9.0827 10.6549C7.99139 10.6549 6.96894 11.2321 6.41498 12.1613L4.34932 15.6251C4.98921 16.3138 5.84345 16.9904 6.79804 17.5597C7.75238 18.1288 8.75384 18.5589 9.66399 18.7945L11.7297 15.3304C12.3859 14.2301 12.2778 12.8827 11.5624 11.9098C11.5536 11.8991 11.5453 11.8883 11.5373 11.8771C11.3039 11.5685 11.0092 11.2985 10.6572 11.0885ZM12.8424 11.5919C13.5915 12.9083 13.6327 14.5797 12.8031 15.9708L11.7397 17.7543L11.9845 20.3946C12.5444 20.5113 13.1513 20.5895 13.7968 20.6266C14.1413 20.6463 14.4047 20.9418 14.3849 21.2865C14.3651 21.631 14.0697 21.8924 13.7253 21.8746C13.1591 21.8421 12.6171 21.7806 12.1049 21.691L12.5929 26.9532C12.5929 26.9534 12.5929 26.9537 12.5929 26.9542C12.8063 29.2501 14.8473 30.9444 17.1435 30.732H17.1442C19.4406 30.5191 21.1356 28.4776 20.9232 26.1815C20.9232 26.181 20.923 26.1807 20.923 26.1805L20.4349 20.9183C19.9481 21.1007 19.4266 21.2606 18.8764 21.3966C18.5414 21.4793 18.2025 21.275 18.1198 20.9398C18.0368 20.6048 18.2414 20.266 18.5766 20.1832C19.204 20.0282 19.7863 19.8395 20.3146 19.6219L19.9994 16.2245L14.2575 10.7392C13.7343 10.9257 13.2546 11.2145 12.8424 11.5919ZM19.4515 2.40252C18.6735 1.65936 17.6478 1.24994 16.5636 1.24994C15.4054 1.24994 14.3307 1.70746 13.5373 2.53778C11.9443 4.20574 12.0048 6.8588 13.6728 8.45181L17.5414 12.1476C18.6449 11.5292 19.8038 10.6093 20.8453 9.51895C21.8868 8.42862 22.7528 7.22892 23.3199 6.09831L19.4515 2.40252ZM28.0829 10.6481L24.2609 6.99698C23.6427 8.13492 22.7718 9.31192 21.7491 10.3822C20.7264 11.4528 19.5905 12.3768 18.4823 13.0463L22.3041 16.6974C23.0821 17.4405 24.1078 17.85 25.192 17.85C26.3502 17.85 27.4249 17.3924 28.2184 16.5621C28.9864 15.7579 29.3954 14.6979 29.3697 13.5773C29.3441 12.4564 28.8871 11.4162 28.0829 10.6481Z" fill="white"/>
<path fill-rule="evenodd" clip-rule="evenodd" d="M16.2607 21.8262C15.9165 21.8262 15.6357 21.5454 15.6357 21.2012C15.6357 20.8569 15.9165 20.5762 16.2607 20.5762C16.605 20.5762 16.8857 20.8569 16.8857 21.2012C16.8857 21.5454 16.605 21.8262 16.2607 21.8262Z" fill="white"/>
</svg>
