<svg width="32" height="32" viewBox="0 0 32 32" fill="none" xmlns="http://www.w3.org/2000/svg">
<path fill-rule="evenodd" clip-rule="evenodd" d="M0.625 21.8997C0.970215 21.8997 1.25 21.6199 1.25 21.2747V3.2251C1.25 2.13599 2.13599 1.25 3.2251 1.25H28.7749C29.8638 1.25 30.75 2.13599 30.75 3.2251V5.7251C30.75 6.07031 31.0298 6.3501 31.375 6.3501C31.7202 6.3501 32 6.07031 32 5.7251V3.2251C32 1.44678 30.5532 0 28.7747 0H3.2251C1.44678 0 0 1.44678 0 3.2251V21.2747C0 21.6199 0.279785 21.8997 0.625 21.8997Z" fill="white"/>
<path fill-rule="evenodd" clip-rule="evenodd" d="M31.375 10.0996C31.0298 10.0996 30.75 10.3794 30.75 10.7246V28.7742C30.75 29.8633 29.8638 30.7493 28.7747 30.7493H3.2251C2.13599 30.7493 1.25 29.8633 1.25 28.7742V26.2742C1.25 25.9292 0.970215 25.6492 0.625 25.6492C0.279785 25.6492 0 25.9292 0 26.2742V28.7742C0 30.5527 1.44678 31.9993 3.2251 31.9993H28.7749C30.5532 31.9993 32 30.5527 32 28.7742V10.7246C32 10.3794 31.7202 10.0996 31.375 10.0996Z" fill="white"/>
<path fill-rule="evenodd" clip-rule="evenodd" d="M23.6939 13.1606C23.7213 13.1606 23.7488 13.1587 23.7767 13.155C23.941 13.1331 24.0899 13.0469 24.1905 12.915L27.7974 8.19287C28.0069 7.9187 27.9547 7.52661 27.6805 7.31714C26.0457 6.06641 24.2347 5.09229 22.2977 4.42163C22.2977 4.42163 22.2977 4.42163 22.2974 4.42163C22.2974 4.42139 22.2974 4.42139 22.2972 4.42139C20.2767 3.72168 18.158 3.36719 16.0001 3.36719C13.8421 3.36719 11.7235 3.72192 9.70295 4.42139C9.7027 4.42139 9.7027 4.42139 9.7027 4.42139C9.70246 4.42139 9.70246 4.42163 9.70246 4.42163C7.76545 5.09229 5.95441 6.06641 4.3194 7.31689C4.04548 7.52661 3.99323 7.9187 4.20246 8.19287L7.80964 12.915C7.91022 13.0466 8.05915 13.1331 8.2237 13.155C8.38776 13.177 8.55426 13.1328 8.6861 13.032C10.8008 11.4141 13.3301 10.5591 16.0001 10.5591C18.67 10.5591 21.199 11.4141 23.314 13.032C23.4236 13.1157 23.5574 13.1606 23.6939 13.1606ZM8.43195 11.6707L5.58161 7.93896C6.80573 7.06738 8.12751 6.35645 9.52472 5.81763L10.2889 8.02466C10.3782 8.2832 10.6204 8.44531 10.8795 8.44531C10.9473 8.44531 11.0162 8.43433 11.084 8.41089C11.4102 8.29785 11.5831 7.94189 11.47 7.61572L10.7061 5.40918C12.2174 4.94458 13.7828 4.68286 15.3751 4.62842V6.96289C15.3751 7.30811 15.6549 7.58789 16.0001 7.58789C16.3453 7.58789 16.6251 7.30811 16.6251 6.96289V4.62866C18.2174 4.68286 19.7828 4.94458 21.294 5.40942L20.5301 7.61572C20.4171 7.94189 20.5899 8.29785 20.9161 8.41089C20.9837 8.43433 21.0528 8.44556 21.1207 8.44556C21.3795 8.44556 21.6216 8.2832 21.7112 8.0249L22.4754 5.81763C23.8724 6.35645 25.1942 7.06763 26.4185 7.93896L23.5679 11.6707C21.3404 10.1235 18.7371 9.30908 16.0001 9.30908C13.263 9.30908 10.6597 10.1233 8.43195 11.6707Z" fill="white"/>
<path fill-rule="evenodd" clip-rule="evenodd" d="M15.9995 14.8223C15.7212 14.8223 15.4766 15.0061 15.3992 15.2734L11.8421 27.5586C11.7874 27.7473 11.8247 27.9507 11.9426 28.1079C12.0608 28.2649 12.2459 28.3574 12.4422 28.3574H19.5567H19.5579C19.9031 28.3574 20.1829 28.0776 20.1829 27.7324C20.1829 27.6575 20.1697 27.5857 20.1455 27.519L16.5999 15.2734C16.5225 15.0061 16.2779 14.8223 15.9995 14.8223ZM13.2739 27.1074L15.9995 17.6943L18.7251 27.1074H13.2739Z" fill="white"/>
<path fill-rule="evenodd" clip-rule="evenodd" d="M0.625 24.3997C0.969238 24.3997 1.25 24.1187 1.25 23.7744C1.25 23.4302 0.969238 23.1494 0.625 23.1494C0.280762 23.1494 0 23.4302 0 23.7744C0 24.1187 0.280762 24.3997 0.625 24.3997Z" fill="white"/>
<path fill-rule="evenodd" clip-rule="evenodd" d="M31.375 7.59961C31.0308 7.59961 30.75 7.88037 30.75 8.22461C30.75 8.56885 31.0308 8.84961 31.375 8.84961C31.7192 8.84961 32 8.56885 32 8.22461C32 7.88037 31.7192 7.59961 31.375 7.59961Z" fill="white"/>
</svg>
