<svg width="14" height="16" viewBox="0 0 14 16" fill="none" xmlns="http://www.w3.org/2000/svg">
<path d="M6.88599 7.70728C7.94482 7.70728 8.86157 7.32751 9.61084 6.57825C10.3599 5.8291 10.7397 4.91248 10.7397 3.85352C10.7397 2.79492 10.36 1.87817 9.61072 1.12878C8.86145 0.379761 7.9447 0 6.88599 0C5.82703 0 4.9104 0.379761 4.16125 1.12891C3.41211 1.87805 3.03223 2.7948 3.03223 3.85352C3.03223 4.91248 3.41211 5.82922 4.16125 6.57837C4.91064 7.32739 5.82739 7.70728 6.88599 7.70728V7.70728ZM4.82434 1.79187C5.39917 1.21704 6.07349 0.937622 6.88599 0.937622C7.69836 0.937622 8.3728 1.21704 8.94775 1.79187C9.52258 2.36682 9.80212 3.04126 9.80212 3.85352C9.80212 4.66602 9.52258 5.34033 8.94775 5.91528C8.3728 6.49023 7.69836 6.76965 6.88599 6.76965C6.07373 6.76965 5.39941 6.49011 4.82434 5.91528C4.24939 5.34045 3.96985 4.66602 3.96985 3.85352C3.96985 3.04126 4.24939 2.36682 4.82434 1.79187Z" fill="#B8B8B8"/>
<path d="M13.629 12.3031C13.6074 11.9913 13.5637 11.6512 13.4994 11.2921C13.4344 10.9303 13.3508 10.5883 13.2507 10.2756C13.1472 9.95251 13.0067 9.63342 12.8328 9.32764C12.6525 9.01025 12.4406 8.73389 12.2028 8.50647C11.9541 8.26855 11.6497 8.07727 11.2976 7.93774C10.9468 7.79895 10.558 7.72864 10.1421 7.72864C9.97876 7.72864 9.8208 7.79565 9.51575 7.99426C9.328 8.1167 9.1084 8.2583 8.86328 8.41492C8.65369 8.54846 8.36975 8.67358 8.01904 8.78687C7.67688 8.89758 7.32947 8.95374 6.98645 8.95374C6.64368 8.95374 6.29626 8.89758 5.95386 8.78687C5.60352 8.67371 5.31946 8.54858 5.11023 8.41504C4.86743 8.25989 4.64771 8.11829 4.45715 7.99414C4.15234 7.79553 3.99438 7.72852 3.83105 7.72852C3.41504 7.72852 3.02637 7.79895 2.67566 7.93787C2.32385 8.07715 2.01929 8.26843 1.77039 8.50659C1.53259 8.73413 1.32068 9.01038 1.1405 9.32764C0.966797 9.63342 0.826172 9.95239 0.722656 10.2758C0.622681 10.5884 0.539062 10.9303 0.474121 11.2921C0.409668 11.6508 0.366089 11.991 0.344482 12.3035C0.323242 12.609 0.3125 12.927 0.3125 13.2483C0.3125 14.0835 0.578003 14.7596 1.10156 15.2583C1.61865 15.7504 2.30273 15.9999 3.13489 15.9999H10.839C11.6709 15.9999 12.355 15.7504 12.8722 15.2583C13.3959 14.76 13.6614 14.0836 13.6614 13.2482C13.6613 12.9258 13.6504 12.6078 13.629 12.3031V12.3031ZM12.2257 14.579C11.884 14.9042 11.4304 15.0623 10.8389 15.0623H3.13489C2.54321 15.0623 2.0896 14.9042 1.74805 14.5791C1.41296 14.2601 1.25012 13.8247 1.25012 13.2483C1.25012 12.9485 1.26001 12.6525 1.27979 12.3683C1.29907 12.0895 1.3385 11.7832 1.39697 11.4578C1.45471 11.1364 1.5282 10.8347 1.6156 10.5616C1.69946 10.2998 1.81384 10.0405 1.95569 9.79077C2.09106 9.55273 2.24683 9.34851 2.4187 9.18396C2.57947 9.03003 2.7821 8.90405 3.02087 8.80957C3.2417 8.72217 3.48987 8.67432 3.75928 8.66711C3.79211 8.68457 3.85059 8.7179 3.94531 8.77966C4.13806 8.90527 4.36023 9.04858 4.60583 9.20544C4.88269 9.38196 5.23938 9.54138 5.66553 9.67896C6.1012 9.81982 6.54553 9.89136 6.98657 9.89136C7.42761 9.89136 7.87207 9.81982 8.3075 9.67908C8.73401 9.54126 9.09058 9.38196 9.3678 9.2052C9.61914 9.04456 9.83508 8.9054 10.0278 8.77966C10.1226 8.71802 10.181 8.68457 10.2139 8.66711C10.4834 8.67432 10.7316 8.72217 10.9525 8.80957C11.1912 8.90405 11.3938 9.03015 11.5546 9.18396C11.7264 9.34839 11.8822 9.55261 12.0176 9.79089C12.1595 10.0405 12.274 10.2999 12.3578 10.5615C12.4453 10.835 12.5189 11.1365 12.5765 11.4576C12.6349 11.7837 12.6744 12.0901 12.6937 12.3684V12.3687C12.7136 12.6517 12.7236 12.9476 12.7238 13.2483C12.7236 13.8248 12.5608 14.2601 12.2257 14.579V14.579Z" fill="#B8B8B8"/>
</svg>
