<svg width="21" height="12" viewBox="0 0 21 12" fill="none" xmlns="http://www.w3.org/2000/svg">
<path d="M0.769999 7.82871L4.15625 11.25C4.23759 11.332 4.33437 11.3971 4.441 11.4415C4.54762 11.4859 4.66199 11.5088 4.7775 11.5088C4.89301 11.5088 5.00738 11.4859 5.114 11.4415C5.22063 11.3971 5.31741 11.332 5.39875 11.25C5.56172 11.086 5.65319 10.8643 5.65319 10.6331C5.65319 10.4019 5.56172 10.1802 5.39875 10.0162L2.28375 6.87496L20.125 6.87497C20.3571 6.87497 20.5796 6.78278 20.7437 6.61868C20.9078 6.45459 21 6.23203 21 5.99997V5.99997C21 5.7679 20.9078 5.54534 20.7437 5.38125C20.5796 5.21715 20.3571 5.12497 20.125 5.12497L2.23125 5.12496L5.39875 1.96621C5.48076 1.88487 5.54586 1.7881 5.59028 1.68147C5.6347 1.57484 5.65757 1.46047 5.65757 1.34496C5.65757 1.22945 5.6347 1.11509 5.59028 1.00846C5.54586 0.901832 5.48076 0.805055 5.39875 0.723713C5.31741 0.6417 5.22063 0.576605 5.11401 0.532183C5.00738 0.48776 4.89301 0.46489 4.7775 0.46489C4.66199 0.46489 4.54762 0.48776 4.441 0.532183C4.33437 0.576605 4.23759 0.6417 4.15625 0.723712L0.769999 4.11871C0.278424 4.6109 0.00231034 5.27809 0.00231028 5.97371C0.00231022 6.66934 0.278424 7.33653 0.769999 7.82871Z" fill="black" fill-opacity="0.6"/>
</svg>
