<svg width="35" height="35" viewBox="0 0 35 35" fill="none" xmlns="http://www.w3.org/2000/svg">
<g clip-path="url(#clip0_1009_825)">
<path d="M1.28333 20.5482L6.92708 26.2503C7.06265 26.387 7.22395 26.4954 7.40166 26.5695C7.57937 26.6435 7.76998 26.6816 7.9625 26.6816C8.15501 26.6816 8.34563 26.6435 8.52334 26.5695C8.70105 26.4954 8.86234 26.387 8.99791 26.2503V26.2503C9.26953 25.977 9.42199 25.6074 9.42199 25.2221C9.42199 24.8369 9.26953 24.4673 8.99791 24.194L3.80625 18.9586L33.5417 18.9586C33.9284 18.9586 34.2994 18.805 34.5729 18.5315C34.8464 18.258 35 17.887 35 17.5003V17.5003C35 17.1135 34.8464 16.7426 34.5729 16.4691C34.2994 16.1956 33.9284 16.0419 33.5417 16.0419L3.71875 16.0419L8.99792 10.7773C9.1346 10.6418 9.24309 10.4805 9.31713 10.3028C9.39117 10.1251 9.42929 9.93445 9.42929 9.74193C9.42929 9.54942 9.39117 9.3588 9.31713 9.18109C9.24309 9.00338 9.1346 8.84209 8.99792 8.70652C8.86234 8.56983 8.70105 8.46134 8.52334 8.3873C8.34563 8.31326 8.15501 8.27514 7.9625 8.27514C7.76998 8.27514 7.57937 8.31326 7.40166 8.3873C7.22395 8.46134 7.06265 8.56983 6.92708 8.70652L1.28333 14.3648C0.464035 15.1852 0.00384676 16.2971 0.00384666 17.4565C0.00384656 18.6159 0.464035 19.7279 1.28333 20.5482V20.5482Z" fill="#FDFCFA"/>
</g>
<defs>
<clipPath id="clip0_1009_825">
<rect width="35" height="35" fill="white" transform="translate(35 35) rotate(-180)"/>
</clipPath>
</defs>
</svg>
