<svg width="24" height="24" viewBox="0 0 24 24" fill="none" xmlns="http://www.w3.org/2000/svg">
<g clip-path="url(#clip0_916_289)">
<path d="M16.5538 15.5374C12.5598 13.6916 6.96944 14.508 6.73348 14.5436C6.20735 14.6231 5.84526 15.1139 5.92477 15.64C6.00428 16.1662 6.49546 16.5279 7.0212 16.4488C7.07335 16.4408 12.2705 15.6804 15.7454 17.2864C15.8762 17.3469 16.0138 17.3755 16.149 17.3755C16.513 17.3754 16.8614 17.1682 17.0241 16.8161C17.2473 16.3332 17.0367 15.7607 16.5538 15.5374Z" fill="#D9D1C7"/>
<path d="M17.6764 12.068C13.1405 9.97188 6.7797 10.9008 6.51112 10.9413C5.98525 11.0208 5.62341 11.5113 5.70266 12.0372C5.78179 12.5632 6.27272 12.9256 6.79846 12.8466C6.85857 12.8374 12.862 11.9658 16.8681 13.8171C16.9991 13.8776 17.1364 13.9063 17.2717 13.9063C17.6357 13.9061 17.984 13.6989 18.1469 13.3467C18.37 12.8638 18.1594 12.2913 17.6764 12.068Z" fill="#D9D1C7"/>
<path d="M18.4311 8.44361C13.4208 6.12806 6.3839 7.15553 6.0868 7.20035C5.56093 7.27986 5.19909 7.77041 5.27835 8.29628C5.3576 8.82215 5.84866 9.18501 6.37414 9.1055C6.44132 9.09536 13.1422 8.12197 17.6228 10.1926C17.7535 10.2531 17.8911 10.2817 18.0264 10.2817C18.3904 10.2817 18.7387 10.0744 18.9015 9.72232C19.1247 9.23922 18.9141 8.66685 18.4311 8.44361Z" fill="#D9D1C7"/>
<path d="M12.0001 0.000244141C5.38316 0.000244141 0 5.38327 0 11.9998C0 18.6167 5.38316 24 12.0001 24C18.6168 24 24 18.6167 24 11.9998C24 5.38327 18.6168 0.000244141 12.0001 0.000244141ZM12.0001 22.0733C6.44556 22.0733 1.92673 17.5544 1.92673 11.9998C1.92673 6.44554 6.44556 1.92685 12.0001 1.92685C17.5544 1.92685 22.0733 6.44554 22.0733 11.9998C22.0733 17.5544 17.5544 22.0733 12.0001 22.0733Z" fill="#D9D1C7"/>
</g>
<defs>
<clipPath id="clip0_916_289">
<rect width="24" height="24" fill="white"/>
</clipPath>
</defs>
</svg>
