<?xml version="1.0" encoding="iso-8859-1"?>
<!-- Uploaded to: SVG Repo, www.svgrepo.com, Generator: SVG Repo Mixer Tools -->
<svg height="800px" width="800px" version="1.1" id="Layer_1" xmlns="http://www.w3.org/2000/svg" xmlns:xlink="http://www.w3.org/1999/xlink" 
	 viewBox="0 0 512 512" xml:space="preserve">
<g transform="translate(1)">
	<g>
		<path style="fill:#FFE100;" d="M344.825,512c-5.389,0-8.982-3.593-8.982-8.982v-45.811c-0.898,0.898-1.796,1.797-3.593,1.797
			l-8.982,5.389c-3.593,2.695-6.288,4.491-9.881,7.186c-14.372,10.779-29.642,21.558-50.302,21.558s-35.93-10.779-50.302-21.558
			c-3.593-2.695-6.288-4.491-9.881-7.186l-8.084-5.389c-0.898-0.898-1.796-0.898-2.695-1.797v45.811
			c0,5.389-3.593,8.982-8.982,8.982s-8.982-3.593-8.982-8.982V440.14c0-3.593,1.796-6.288,4.491-8.084
			c2.695-1.796,6.288-0.898,8.982,0.898c5.389,3.593,10.779,7.186,17.067,11.677l8.982,5.389c3.593,2.695,7.186,5.389,10.779,7.186
			c12.575,8.982,24.253,17.965,39.523,17.965c15.27,0,26.947-8.982,39.523-17.965c3.593-2.695,7.186-5.389,10.779-7.186l8.982-6.288
			c5.389-3.593,11.677-8.084,17.067-11.677c2.695-1.797,6.288-1.797,8.982-0.898c2.695,1.797,4.491,4.491,4.491,8.084v62.877
			C353.807,508.407,349.316,512,344.825,512z"/>
		<path style="fill:#FFE100;" d="M255,8.982c0,0-215.579-5.389-215.579,206.596v176.954c0,31.439,25.151,56.589,56.589,56.589
			h78.147h12.575c-13.474-8.982-26.049-17.965-37.726-28.744c-43.116-40.421-46.709-102.4-46.709-158.989
			c0,0,136.533-8.084,188.632-135.635c0,0,38.625,17.965,71.86,44.014c27.846,22.456,44.912,55.691,44.912,91.621
			c0,56.589-4.491,118.568-46.709,158.989c-12.575,10.779-25.151,19.761-38.625,28.744h13.474h78.147
			c31.439,0,56.589-25.151,56.589-56.589V215.579C470.579,3.593,255,8.982,255,8.982"/>
	</g>
	<path style="fill:#FFA800;" d="M255,8.982c0,0-5.389,0-13.474,0c46.709,3.593,202.105,26.947,202.105,206.596v176.954
		c0,31.439-25.151,56.589-56.589,56.589h26.947c31.439,0,56.589-25.151,56.589-56.589V215.579C470.579,3.593,255,8.982,255,8.982"/>
	<path style="fill:#FFFFFF;" d="M255,8.982c0,0,5.389,0,13.474,0C220.867,12.575,66.368,35.93,66.368,215.579v176.954
		c0,31.439,25.151,56.589,56.589,56.589H96.011c-31.439,0-56.589-25.151-56.589-56.589V215.579C39.421,3.593,255,8.982,255,8.982"/>
	<path style="fill:#FDCC00;" d="M362.789,169.768c-33.235-26.049-71.86-44.014-71.86-44.014
		c-52.997,127.551-188.632,135.635-188.632,135.635c0,56.59,4.491,118.568,46.709,158.99c15.27,14.372,33.235,26.049,50.302,37.726
		c17.067,11.677,32.337,26.947,54.793,26.947s37.726-15.27,54.793-26.947c17.067-11.677,35.032-23.354,50.302-37.726
		c42.218-40.421,46.709-102.4,46.709-158.989C407.702,225.46,390.635,192.225,362.789,169.768"/>
	<path d="M335.842,512c-5.389,0-8.982-3.593-8.982-8.982v-45.811c-0.898,0.898-1.797,1.797-3.593,1.797l-8.982,5.389
		c-3.593,2.695-6.288,4.491-9.881,7.186c-14.372,11.677-28.744,22.456-49.404,22.456s-35.93-10.779-50.302-21.558
		c-3.593-2.695-6.288-4.491-9.881-7.186l-8.084-5.389c-0.898-0.898-1.797-0.898-2.695-1.797v44.912c0,5.389-3.593,8.982-8.982,8.982
		c-5.389,0-8.982-3.593-8.982-8.982V440.14c0-3.593,1.796-6.288,4.491-8.084c2.695-1.796,6.288-0.898,8.982,0.898
		c5.389,3.593,10.779,7.186,17.067,11.677l8.982,5.389c3.593,2.695,7.186,5.389,10.779,7.186
		c12.575,8.982,24.253,17.965,39.523,17.965s26.947-8.982,39.523-17.965c3.593-2.695,7.186-5.389,10.779-7.186l8.982-6.288
		c5.389-3.593,11.677-8.084,17.067-11.677c2.695-1.797,6.288-1.797,8.982-0.898c2.695,1.797,4.491,4.491,4.491,8.084v62.877
		C344.825,508.407,340.333,512,335.842,512z"/>
	<path d="M255,494.035c-20.66,0-35.93-10.779-50.302-21.558c-3.593-2.695-6.288-4.491-9.881-7.186l-8.982-6.288
		c-14.372-9.881-29.642-19.761-43.116-32.337C98.705,385.347,93.316,322.47,93.316,261.389c0-4.491,3.593-8.982,8.084-8.982
		c0.898,0,131.144-8.982,180.547-130.246c0.898-2.695,2.695-4.491,5.389-5.389c2.695-0.898,4.491-0.898,7.186,0
		c1.797,0.898,40.421,18.863,74.554,44.912c29.642,23.354,47.607,60.182,47.607,98.807c0,61.081-6.288,123.958-49.404,165.277
		c-13.474,12.575-28.744,22.456-43.116,32.337l-8.982,6.288c-3.593,2.695-6.288,4.491-9.881,7.186
		C290.032,483.256,275.66,494.035,255,494.035z M111.281,269.474c0,51.2,5.389,107.789,44.014,144.618
		c11.677,11.677,26.947,21.558,40.421,30.54l8.982,6.288c3.593,2.695,7.186,5.389,10.779,8.084
		c12.575,8.982,24.253,17.965,39.523,17.965s26.947-8.982,39.523-17.965c3.593-2.695,7.186-5.389,10.779-8.084l8.982-6.288
		c14.372-8.982,28.744-18.863,40.421-30.54c40.421-38.625,44.014-98.807,44.014-152.702c0-33.235-15.27-64.674-41.319-84.435
		c-23.354-17.965-49.404-32.337-61.979-38.625C246.916,243.425,141.821,264.982,111.281,269.474z"/>
	<path d="M413.091,458.105h-90.723c-3.593,0-7.186-2.695-8.982-6.288c-0.898-3.593,0-8.084,3.593-9.881
		c12.575-8.982,25.151-17.067,36.828-27.846c40.421-38.625,44.014-98.807,44.014-152.702c0-33.235-15.27-63.775-41.319-84.435
		c-23.354-17.965-49.404-32.337-61.979-38.625c-47.607,105.095-152.702,126.653-183.242,131.144
		c0,51.2,5.389,107.789,44.014,144.618c10.779,9.881,23.354,18.863,35.93,26.947c2.695,1.797,5.389,4.491,5.389,8.084
		c0,5.389-4.491,8.982-8.982,8.982l0,0H96.011c-36.828,0-65.572-29.642-65.572-65.572V215.579C30.439,6.288,230.747,0,253.204,0H255
		h0.898c10.779,0,65.572,1.796,117.67,28.744c48.505,24.253,105.993,77.249,105.993,186.835v176.954
		C479.561,428.463,449.919,458.105,413.091,458.105z M351.112,440.14h61.979c26.049,0,47.607-21.558,47.607-47.607V215.579
		c0.898-192.225-184.14-197.614-204.8-197.614H255h-1.796c-20.66,0-204.8,5.389-204.8,197.614v176.954
		c0,26.049,21.558,47.607,47.607,47.607h61.979c-5.389-4.491-10.779-8.982-15.27-13.474
		C98.705,385.347,93.316,322.47,93.316,261.389c0-4.491,3.593-8.982,8.084-8.982c0.898,0,131.144-8.982,180.547-130.246
		c0.898-2.695,2.695-4.491,5.389-5.389c2.695-0.898,4.491-0.898,7.186,0c1.797,0.898,40.421,18.863,73.656,44.912
		c30.54,24.253,47.607,60.182,47.607,98.807c0,61.081-6.288,123.958-49.404,165.277C361.891,431.158,356.502,435.649,351.112,440.14
		z"/>
</g>
</svg>