<?xml version="1.0" encoding="iso-8859-1"?>
<!-- Uploaded to: SVG Repo, www.svgrepo.com, Generator: SVG Repo Mixer Tools -->
<svg height="800px" width="800px" version="1.1" id="Layer_1" xmlns="http://www.w3.org/2000/svg" xmlns:xlink="http://www.w3.org/1999/xlink" 
	 viewBox="0 0 512 512" xml:space="preserve">
<g transform="translate(1 1)">
	<path style="fill:#FFE100;" d="M336.696,50.2c0,0-90.453-95.573-204.8,0c0,0-109.227,104.96-8.533,213.333
		c0,0,23.893-85.333,128-85.333c0,0,58.88,7.68,59.733-58.88c0-0.853,0.853-1.707,0.853-1.707c7.68,0,50.347,0.853,50.347,68.267
		c0,0-3.413,59.733,51.2,59.733c0,0,32.427-82.773,8.533-136.533C422.03,109.933,409.23,50.2,336.696,50.2"/>
	<path style="fill:#FDCC00;" d="M362.296,186.733c0-67.413-41.813-68.267-50.347-68.267c-0.853,0-0.853,0.853-0.853,0.853
		c-0.853,65.707-59.733,58.88-59.733,58.88c-98.987,0-125.44,76.8-128,84.48c0,3.413,0,6.827,0,10.24
		c0,53.76,4.267,112.64,44.373,151.04c14.507,13.653,31.573,24.747,47.787,35.84s30.72,25.6,52.053,25.6
		c21.333,0,35.84-14.507,52.053-25.6s33.28-22.187,47.787-35.84c40.107-38.4,44.373-97.28,44.373-151.04
		c0-9.387,0-17.92-0.853-26.453C358.03,245.613,362.296,186.733,362.296,186.733"/>
	<g>
		<path style="fill:#FFFFFF;" d="M156.643,50.2c33.28-27.307,64-39.253,91.307-41.813c-32.427-3.413-72.533,5.12-116.907,41.813
			c0,0-109.227,104.96-8.533,213.333c0,0,2.56-8.533,9.387-20.48C61.07,142.36,156.643,50.2,156.643,50.2"/>
		<path style="fill:#FFFFFF;" d="M123.363,262.68c0,3.413,0,6.827,0,10.24c0,53.76,4.267,112.64,44.373,151.04
			c14.507,13.653,31.573,24.747,47.787,35.84s30.72,25.6,52.053,25.6c4.267,0,8.533-0.853,12.8-1.707
			c-14.507-4.267-26.453-15.36-39.253-23.893c-16.213-11.093-33.28-22.187-47.787-35.84c-40.107-38.4-44.373-97.28-44.373-151.04
			c0-3.413,0-48.64,0-52.053L123.363,262.68z"/>
	</g>
	<g>
		<path style="fill:#FFA800;" d="M310.243,50.2c73.387,0,85.333,59.733,85.333,59.733c20.48,46.08,0,112.64-6.827,131.413
			c5.973,3.413,14.507,5.12,23.893,5.12c0,0,32.427-82.773,8.533-136.533c0,0-11.947-59.733-85.333-59.733H310.243z"/>
		<path style="fill:#FFA800;" d="M386.19,246.467c0.853,8.533,0.853,17.067,0.853,26.453c0,53.76-4.267,112.64-44.373,151.04
			c-14.507,13.653-31.573,24.747-48.64,35.84c-12.8,8.533-24.747,19.627-39.253,23.893c4.267,0.853,8.533,1.707,12.8,1.707
			c21.333,0,35.84-14.507,52.053-25.6s33.28-22.187,47.787-35.84c40.107-38.4,44.373-97.28,44.373-151.04
			c0-9.387,0-17.92-0.853-26.453L386.19,246.467L386.19,246.467z"/>
	</g>
	<path style="fill:#FFE100;" d="M353.763,511c-5.12,0-8.533-3.413-8.533-8.533v-43.52c-0.853,0.853-2.56,1.707-3.413,2.56
		l-7.68,5.12c-3.413,2.56-5.973,4.267-9.387,6.827c-13.653,10.24-28.16,20.48-47.787,20.48c-19.627,0-34.133-10.24-47.787-20.48
		c-3.413-2.56-5.973-4.267-9.387-6.827l-7.68-5.12c-0.853-0.853-1.707-0.853-2.56-1.707v42.667c0,5.12-3.413,8.533-8.533,8.533
		c-5.12,0-8.533-3.413-8.533-8.533v-59.733c0-3.413,1.707-5.973,4.267-7.68s5.973-0.853,8.533,0.853
		c5.12,3.413,10.24,6.827,16.213,11.093l8.533,5.12c3.413,2.56,6.827,5.12,10.24,6.827c11.947,8.533,23.04,17.067,37.547,17.067
		s25.6-8.533,37.547-17.067c3.413-2.56,6.827-5.12,10.24-6.827l8.533-5.12c5.12-3.413,11.093-7.68,16.213-11.093
		c2.56-1.707,5.973-1.707,8.533-0.853c2.56,1.707,4.267,4.267,4.267,7.68v59.733C362.296,507.587,358.03,511,353.763,511z"/>
	<path d="M345.23,511c-5.12,0-8.533-3.413-8.533-8.533v-43.52c-0.853,0.853-2.56,1.707-3.413,2.56l-7.68,5.12
		c-3.413,2.56-5.973,4.267-9.387,6.827c-14.507,10.24-28.16,20.48-47.787,20.48s-34.133-10.24-47.787-20.48
		c-3.413-2.56-5.973-4.267-9.387-6.827l-7.68-5.12c-0.853-0.853-1.707-0.853-2.56-1.707v42.667c0,5.12-3.413,8.533-8.533,8.533
		s-8.533-3.413-8.533-8.533v-59.733c0-3.413,1.707-5.973,4.267-7.68c2.56-1.707,5.973-0.853,8.533,0.853
		c5.12,3.413,10.24,6.827,16.213,11.093l8.533,5.12c3.413,2.56,6.827,5.12,10.24,7.68c11.947,8.533,23.04,17.067,37.547,17.067
		c14.507,0,25.6-8.533,37.547-17.067c3.413-2.56,6.827-5.12,10.24-6.827l8.533-5.12c5.12-3.413,11.093-7.68,16.213-11.093
		c2.56-1.707,5.973-1.707,8.533-0.853c2.56,1.707,4.267,4.267,4.267,7.68v59.733C353.763,507.587,349.496,511,345.23,511z"/>
	<path d="M126.776,280.6l-10.24-11.093c-104.96-113.493,7.68-224.427,9.387-225.28C160.91,14.36,198.456-1,235.15-1
		c55.467,0,93.867,33.28,104.107,42.667c70.827,1.707,87.893,57.173,89.6,65.707c24.747,56.32-7.68,139.093-8.533,142.507
		l-1.707,5.12h-5.12c-17.92,0-32.427-5.973-42.667-17.067c-18.773-20.48-17.067-51.2-17.067-52.053
		c0-46.08-21.333-57.173-34.133-58.88c-3.413,43.52-34.133,59.733-62.293,59.733c-2.56,0-5.12,0-5.973,0
		c-95.573,0-119.467,78.507-119.467,79.36L126.776,280.6z M235.15,16.067c-33.28,0-66.56,13.653-98.133,40.96
		c-3.413,3.413-94.72,93.867-16.213,191.147c12.8-25.6,47.787-77.653,130.56-77.653h0.853c0,0,1.707,0,4.267,0
		c17.067,0,45.227-6.827,46.08-50.347c0-5.12,4.267-9.387,9.387-9.387h1.707c9.387,0,57.173,3.413,57.173,76.8
		c0,0.853-0.853,25.6,12.8,40.107c5.973,5.973,13.653,10.24,23.893,11.093c6.827-18.773,25.6-81.92,6.827-124.587l-0.853-2.56
		c-0.853-2.56-11.947-52.907-76.8-52.907h-3.413l-2.56-2.56C329.87,55.32,291.47,16.067,235.15,16.067z"/>
	<path d="M268.43,493.933c-19.627,0-34.133-10.24-47.787-20.48c-3.413-2.56-5.973-4.267-9.387-6.827l-8.533-5.12
		c-13.653-9.387-28.16-18.773-40.96-30.72c-41.813-40.107-46.933-99.84-46.933-157.867c0-2.56,0-5.12,0-7.68v-2.56
		c0-0.853,0-1.707,0-2.56c3.413-9.387,31.573-90.453,136.533-90.453h0.853c0,0,1.707,0,4.267,0c17.067,0,45.227-6.827,46.08-50.347
		c0-5.12,4.267-9.387,9.387-9.387h1.707c9.387,0,57.173,3.413,57.173,76.8c0,0.853-0.853,24.747,12.8,40.107
		c6.827,7.68,17.067,11.093,29.013,11.093c4.267,0,8.533,3.413,8.533,7.68c0.853,10.24,0.853,18.773,0.853,27.307
		c0,58.027-5.973,117.76-46.933,157.013c-12.8,11.947-27.307,21.333-40.96,30.72l-8.533,5.12c-3.413,2.56-5.973,4.267-9.387,6.827
		C301.71,483.693,288.056,493.933,268.43,493.933z M131.896,264.387v1.707c0,2.56,0,4.267,0,6.827
		c0,50.347,3.413,108.373,41.813,145.067c11.947,11.093,25.6,20.48,38.4,29.013l8.533,5.973c3.413,2.56,6.827,5.12,10.24,6.827
		c11.947,8.533,23.04,17.067,37.547,17.067c14.507,0,25.6-8.533,37.547-17.067c3.413-2.56,6.827-5.12,10.24-6.827L324.75,447
		c13.653-8.533,27.307-17.92,38.4-29.013c38.4-36.693,41.813-93.867,41.813-145.067c0-5.973,0-11.947-0.853-18.773
		c-13.653-1.707-24.747-6.827-33.28-16.213c-18.773-20.48-17.067-50.347-17.067-52.053c0-46.08-21.333-57.173-34.133-58.88
		c-3.413,43.52-34.133,59.733-62.293,59.733c-2.56,0-5.12,0-5.973,0C161.763,186.733,135.31,252.44,131.896,264.387z"/>
</g>
</svg>