<svg width="108" height="40" viewBox="0 0 108 40" fill="none" xmlns="http://www.w3.org/2000/svg">
<g clip-path="url(#clip0_1124_916)">
<path d="M108 20C108 31.0457 99.0457 40 88 40C76.9543 40 68 31.0457 68 20C68 8.9543 76.9543 0 88 0C99.0457 0 108 8.9543 108 20Z" fill="#F4B10D"/>
<path d="M21.1445 21.536C21.4005 21.536 21.5685 21.72 21.6485 22.088C21.7445 22.456 21.7925 23.016 21.7925 23.768C21.7925 24.536 21.7445 25.104 21.6485 25.472C21.5525 25.824 21.3845 26 21.1445 26C20.6165 26 20.0885 25.856 19.5605 25.568C19.0325 25.264 18.4805 24.84 17.9045 24.296L17.2085 25.592C16.2165 25.752 15.2005 25.856 14.1605 25.904C14.1925 27.056 14.1205 28.064 13.9445 28.928C12.6965 29.952 11.3445 30.768 9.88842 31.376C8.43242 32 7.00842 32.312 5.61642 32.312C3.95242 32.312 2.60042 31.856 1.56042 30.944C0.536414 30.048 0.0244141 28.72 0.0244141 26.96C0.0244141 25.008 0.536414 22.784 1.56042 20.288L4.87242 21.368C4.24842 23.208 3.93642 24.624 3.93642 25.616C3.93642 26.4 4.12842 26.984 4.51242 27.368C4.91242 27.768 5.48042 27.968 6.21642 27.968C7.44842 27.968 9.04842 27.44 11.0165 26.384C10.2165 25.696 8.99242 24.912 7.34442 24.032L8.52042 20.864C9.56042 21.072 10.7205 21.248 12.0005 21.392C13.2805 21.52 14.4325 21.584 15.4565 21.584C14.8165 20.816 14.2805 20.192 13.8485 19.712C13.4165 19.216 12.9685 18.76 12.5045 18.344V14.48L20.1365 11.624L20.4725 11.864V15.824L16.2725 17.144C16.7685 17.736 17.1525 18.2 17.4245 18.536C18.0485 19.304 18.5285 19.872 18.8645 20.24C19.2005 20.608 19.5605 20.92 19.9445 21.176C20.3285 21.416 20.7285 21.536 21.1445 21.536Z" fill="#346E16"/>
<path d="M26.524 17.7917C26.812 18.7037 26.956 19.7517 26.956 20.9357C26.956 21.7997 26.868 22.6157 26.692 23.3837C26.532 24.1517 26.292 24.7917 25.972 25.3037C24.516 25.7677 22.908 25.9997 21.148 25.9997C20.908 25.9997 20.74 25.8237 20.644 25.4717C20.548 25.1037 20.5 24.5357 20.5 23.7677C20.5 23.0157 20.548 22.4557 20.644 22.0877C20.724 21.7197 20.892 21.5357 21.148 21.5357C22.156 21.5357 22.932 21.4637 23.476 21.3197C23.316 20.6477 23.044 19.7677 22.66 18.6797L26.524 17.7917ZM24.076 16.5677C23.74 16.4397 23.3 16.1917 22.756 15.8237C22.212 15.4397 21.836 15.1117 21.628 14.8397C21.676 14.6317 21.796 14.3517 21.988 13.9997C22.196 13.6317 22.428 13.3037 22.684 13.0157C22.94 12.7117 23.164 12.5437 23.356 12.5117C23.532 12.4797 23.796 12.5597 24.148 12.7517C24.516 12.9437 24.852 13.1837 25.156 13.4717C25.476 13.7437 25.652 13.9597 25.684 14.1197C25.748 14.3597 25.564 14.7837 25.132 15.3917C24.716 15.9837 24.364 16.3757 24.076 16.5677Z" fill="#346E16"/>
<path d="M28.5752 25.952C28.6552 24.672 28.6952 23.344 28.6952 21.968C28.6952 19.392 28.5992 16.28 28.4072 12.632L32.2952 12.416C32.5032 15.488 32.6072 18.4 32.6072 21.152C32.6072 22.896 32.5752 24.312 32.5112 25.4C32.1752 25.592 31.6392 25.752 30.9032 25.88C30.1672 25.992 29.4392 26.056 28.7192 26.072L28.5752 25.952Z" fill="#346E16"/>
<path d="M40.194 14.2402C41.01 15.4562 41.666 16.7362 42.162 18.0802C42.674 19.4242 42.93 20.7682 42.93 22.1122C42.93 23.1682 42.754 24.2002 42.402 25.2082C41.938 25.4162 41.162 25.6162 40.074 25.8082C39.002 25.9842 37.93 26.0722 36.858 26.0722C35.85 26.0722 34.994 25.9842 34.29 25.8082C34.338 24.4162 34.602 22.9922 35.082 21.5362C35.962 21.6162 36.794 21.6562 37.578 21.6562C38.266 21.6562 38.922 21.6322 39.546 21.5842C38.938 20.0002 38.05 18.4882 36.882 17.0482L40.194 14.2402Z" fill="#346E16"/>
<path d="M78.0978 21.5356C78.3538 21.5356 78.5218 21.7196 78.6018 22.0876C78.6978 22.4556 78.7458 23.0156 78.7458 23.7676C78.7458 24.5356 78.6978 25.1036 78.6018 25.4716C78.5058 25.8236 78.3378 25.9996 78.0978 25.9996C77.4578 25.9996 76.8658 25.8796 76.3218 25.6396C75.7778 25.3996 75.2978 24.9596 74.8818 24.3196H74.6658C74.5058 24.8956 74.2338 25.3356 73.8498 25.6396C73.4818 25.9436 73.0578 26.0956 72.5778 26.0956C71.6178 26.0956 70.9218 25.5036 70.4898 24.3196H70.2738C69.9378 24.8796 69.4738 25.3116 68.8818 25.6156C68.3058 25.9196 67.7218 26.0716 67.1298 26.0716C66.3138 26.0716 65.6578 25.8556 65.1618 25.4236C64.6658 24.9916 64.1538 24.3756 63.6258 23.5756C63.1938 22.9356 62.8258 22.4716 62.5218 22.1836C62.2178 21.8796 61.8338 21.7276 61.3698 21.7276C61.1138 21.7276 60.8178 21.8156 60.4818 21.9916C60.1458 22.1516 59.8418 22.3596 59.5698 22.6156C60.9298 23.1916 61.8018 23.8316 62.1858 24.5356C62.3138 24.7436 62.3778 25.1196 62.3778 25.6636C62.3778 26.2076 62.2978 26.8156 62.1378 27.4876C61.9778 28.1756 61.7298 28.8556 61.3938 29.5276C60.4658 30.2796 59.3058 30.9276 57.9138 31.4716C56.5218 32.0316 55.1538 32.3116 53.8098 32.3116C52.1458 32.3116 50.7938 31.8556 49.7538 30.9436C48.7298 30.0476 48.2178 28.7196 48.2178 26.9596C48.2178 25.0396 48.7058 22.8396 49.6818 20.3596L52.9938 21.4156C52.4178 23.0956 52.1298 24.4956 52.1298 25.6156C52.1298 26.3996 52.3298 26.9996 52.7298 27.4156C53.1458 27.8476 53.7298 28.0636 54.4818 28.0636C55.6818 28.0636 57.1378 27.5756 58.8498 26.5996L58.2498 26.2636C57.5618 25.8636 57.0338 25.5436 56.6658 25.3036C56.3138 25.0476 56.0258 24.7596 55.8018 24.4396C55.5938 24.1036 55.4898 23.7196 55.4898 23.2876C55.4898 22.6316 55.8418 21.8636 56.5458 20.9836C57.2498 20.1036 58.0978 19.3516 59.0898 18.7276C60.0978 18.0876 60.9938 17.7676 61.7778 17.7676C62.4498 17.7676 62.9778 17.9276 63.3618 18.2476C63.7618 18.5676 64.1858 19.0476 64.6338 19.6876C65.0818 20.3276 65.4898 20.8076 65.8578 21.1276C66.2418 21.4316 66.7618 21.5836 67.4178 21.5836C68.5698 21.5836 69.3698 20.7196 69.8178 18.9916L71.8338 19.3036C71.8178 19.4316 71.8098 19.6076 71.8098 19.8316C71.8098 20.4236 71.9138 20.8716 72.1218 21.1756C72.3458 21.4796 72.6258 21.6316 72.9618 21.6316C73.7778 21.6316 74.2418 20.7356 74.3538 18.9436H76.3458C76.3618 19.6476 76.4018 20.1676 76.4658 20.5036C76.5298 20.8396 76.6818 21.0956 76.9218 21.2716C77.1618 21.4476 77.5538 21.5356 78.0978 21.5356Z" fill="#346E16"/>
<path d="M84.9411 17.792C85.2451 18.752 85.3971 19.792 85.3971 20.912C85.3971 21.76 85.3091 22.576 85.1331 23.36C84.9571 24.144 84.7091 24.792 84.3891 25.304C83.7171 25.496 82.8291 25.664 81.7251 25.808C80.6211 25.936 79.4131 26 78.1011 26C77.8611 26 77.6931 25.824 77.5971 25.472C77.5011 25.104 77.4531 24.536 77.4531 23.768C77.4531 23.016 77.5011 22.456 77.5971 22.088C77.6771 21.72 77.8451 21.536 78.1011 21.536C79.8131 21.536 81.0771 21.44 81.8931 21.248C81.7651 20.704 81.6051 20.168 81.4131 19.64C81.2371 19.112 81.1331 18.792 81.1011 18.68L84.9411 17.792ZM84.8691 29.192C84.9011 29.432 84.7251 29.824 84.3411 30.368C83.9571 30.912 83.6291 31.28 83.3571 31.472C83.0531 31.344 82.6691 31.12 82.2051 30.8C81.7411 30.496 81.3971 30.216 81.1731 29.96C81.0131 30.248 80.8051 30.544 80.5491 30.848C80.2931 31.152 80.0851 31.36 79.9251 31.472C79.6051 31.328 79.1971 31.08 78.7011 30.728C78.2051 30.392 77.8531 30.104 77.6451 29.864C77.7411 29.528 77.9811 29.08 78.3651 28.52C78.7491 27.96 79.0691 27.68 79.3251 27.68C79.5811 27.68 79.9651 27.856 80.4771 28.208C80.9891 28.576 81.3011 28.88 81.4131 29.12C81.6371 28.72 81.8691 28.376 82.1091 28.088C82.3491 27.816 82.5651 27.68 82.7571 27.68C83.0131 27.68 83.4131 27.872 83.9571 28.256C84.5171 28.656 84.8211 28.968 84.8691 29.192Z" fill="#346E16"/>
<path d="M87.0054 25.9515C87.0854 24.6715 87.1254 23.3435 87.1254 21.9675C87.1254 19.3915 87.0294 16.2795 86.8374 12.6315L90.7254 12.4155C90.9334 15.4875 91.0374 18.3995 91.0374 21.1515C91.0374 22.8955 91.0054 24.3115 90.9414 25.3995C90.6054 25.5915 90.0694 25.7515 89.3334 25.8795C88.5974 25.9915 87.8694 26.0555 87.1494 26.0715L87.0054 25.9515ZM92.3574 8.21556C92.5494 8.55156 92.6454 8.91156 92.6454 9.29556C92.6454 9.85556 92.4534 10.3355 92.0694 10.7355C91.6854 11.1355 91.1334 11.3355 90.4134 11.3355C90.0934 11.3355 89.5654 11.2715 88.8294 11.1435C88.6854 11.1275 88.4614 11.0955 88.1574 11.0475C87.8534 10.9995 87.6054 10.9755 87.4134 10.9755C87.0454 10.9755 86.7894 11.0475 86.6454 11.1915C86.5014 11.3195 86.4054 11.4955 86.3574 11.7195H85.3014C85.0614 11.2075 84.9414 10.7195 84.9414 10.2555C84.9414 9.64755 85.1494 9.14356 85.5654 8.74356C85.9654 8.34356 86.5174 8.14355 87.2214 8.14355C87.6054 8.14355 88.1654 8.23955 88.9014 8.43155C88.9814 8.44755 89.1894 8.49555 89.5254 8.57555C89.8614 8.65555 90.1894 8.69555 90.5094 8.69555C90.8614 8.69555 91.1494 8.65555 91.3734 8.57555C91.6134 8.47955 91.7734 8.35956 91.8534 8.21556H92.3574Z" fill="#346E16"/>
</g>
<defs>
<clipPath id="clip0_1124_916">
<rect width="108" height="40" fill="white"/>
</clipPath>
</defs>
</svg>
