<svg width="70" height="72" viewBox="0 0 70 72" fill="none" xmlns="http://www.w3.org/2000/svg">
<path fill-rule="evenodd" clip-rule="evenodd" d="M8 63.2C14.78 61.26 28.22 64.06 35 59.2C41.78 64.06 55.22 61.26 62 63.2C62 63.2 65.3 64.28 68 67.2C66.64 69.14 64.7 69.18 62 68.2C55.22 66.26 41.78 69.12 35 66.2C28.22 69.12 14.78 66.26 8 68.2C5.3 69.18 3.36 69.14 2 67.2C4.7 64.28 8 63.2 8 63.2Z" fill="black" stroke="black" stroke-width="1.5" stroke-linejoin="round"/>
<path fill-rule="evenodd" clip-rule="evenodd" d="M20 55.2C25 60.2 45 60.2 50 55.2C51 52.2 50 51.2 50 51.2C50 46.2 45 43.2 45 43.2C56 40.2 57 20.2 35 12.2C13 20.2 14 40.2 25 43.2C25 43.2 20 46.2 20 51.2C20 51.2 19 52.2 20 55.2Z" fill="black" stroke="black" stroke-width="1.5" stroke-linejoin="round"/>
<path fill-rule="evenodd" clip-rule="evenodd" d="M40 7.19995C40 8.52603 39.4732 9.7978 38.5355 10.7355C37.5979 11.6732 36.3261 12.2 35 12.2C33.6739 12.2 32.4021 11.6732 31.4645 10.7355C30.5268 9.7978 30 8.52603 30 7.19995C30 5.87387 30.5268 4.6021 31.4645 3.66442C32.4021 2.72674 33.6739 2.19995 35 2.19995C36.3261 2.19995 37.5979 2.72674 38.5355 3.66442C39.4732 4.6021 40 5.87387 40 7.19995Z" fill="black" stroke="black" stroke-width="1.5" stroke-linejoin="round"/>
<path d="M25 43.2H45M20 51.2H50M35 22.2V32.2M30 27.2H40" stroke="white" stroke-width="1.5" stroke-linecap="round"/>
</svg>
