<svg width="70" height="65" viewBox="0 0 70 65" fill="none" xmlns="http://www.w3.org/2000/svg">
<path d="M11.375 36.75C26.25 34.125 48.125 34.125 58.625 36.75L63 14.875L49.875 35L49.35 10.325L40.25 34.125L35 8.75L29.75 34.125L20.65 10.325L20.125 35L7 14.875L11.375 36.75Z" fill="black" stroke="black" stroke-width="1.5" stroke-linejoin="round"/>
<path d="M11.375 36.75C11.375 40.25 14 40.25 15.75 43.75C17.5 46.375 17.5 45.5 16.625 49.875C14 51.625 14.875 54.25 14.875 54.25C12.25 56.875 14.875 58.625 14.875 58.625C26.25 60.375 43.75 60.375 55.125 58.625C55.125 58.625 57.75 56.875 55.125 54.25C55.125 54.25 56 51.625 53.375 49.875C52.5 45.5 52.5 46.375 54.25 43.75C56 40.25 58.625 40.25 58.625 36.75C43.75 34.125 26.25 34.125 11.375 36.75Z" fill="black" stroke="black" stroke-width="1.5" stroke-linecap="round" stroke-linejoin="round"/>
<path d="M15.75 43.75C21.875 42 48.125 42 54.25 43.75Z" fill="black"/>
<path d="M15.75 43.75C21.875 42 48.125 42 54.25 43.75" stroke="black" stroke-width="1.5" stroke-linecap="round" stroke-linejoin="round"/>
<path d="M16.625 49.875C27.125 48.125 42.875 48.125 53.375 49.875Z" fill="black"/>
<path d="M16.625 49.875C27.125 48.125 42.875 48.125 53.375 49.875" stroke="black" stroke-width="1.5" stroke-linecap="round" stroke-linejoin="round"/>
<path d="M6.125 15.75C8.058 15.75 9.625 14.183 9.625 12.25C9.625 10.317 8.058 8.75 6.125 8.75C4.192 8.75 2.625 10.317 2.625 12.25C2.625 14.183 4.192 15.75 6.125 15.75Z" fill="black" stroke="black" stroke-width="1.5" stroke-linecap="round" stroke-linejoin="round"/>
<path d="M20.125 10.5C22.058 10.5 23.625 8.933 23.625 7C23.625 5.067 22.058 3.5 20.125 3.5C18.192 3.5 16.625 5.067 16.625 7C16.625 8.933 18.192 10.5 20.125 10.5Z" fill="black" stroke="black" stroke-width="1.5" stroke-linecap="round" stroke-linejoin="round"/>
<path d="M35 8.75C36.933 8.75 38.5 7.183 38.5 5.25C38.5 3.317 36.933 1.75 35 1.75C33.067 1.75 31.5 3.317 31.5 5.25C31.5 7.183 33.067 8.75 35 8.75Z" fill="black" stroke="black" stroke-width="1.5" stroke-linecap="round" stroke-linejoin="round"/>
<path d="M49.875 10.5C51.808 10.5 53.375 8.933 53.375 7C53.375 5.067 51.808 3.5 49.875 3.5C47.942 3.5 46.375 5.067 46.375 7C46.375 8.933 47.942 10.5 49.875 10.5Z" fill="black" stroke="black" stroke-width="1.5" stroke-linecap="round" stroke-linejoin="round"/>
<path d="M63.875 15.75C65.808 15.75 67.375 14.183 67.375 12.25C67.375 10.317 65.808 8.75 63.875 8.75C61.942 8.75 60.375 10.317 60.375 12.25C60.375 14.183 61.942 15.75 63.875 15.75Z" fill="black" stroke="black" stroke-width="1.5" stroke-linecap="round" stroke-linejoin="round"/>
<path d="M14.875 58.625C27.9086 63.1592 42.0914 63.1592 55.125 58.625" stroke="black" stroke-width="1.5" stroke-linejoin="round"/>
<path d="M14.875 42C27.9086 37.4658 42.0914 37.4658 55.125 42" stroke="white" stroke-width="1.5" stroke-linecap="round" stroke-linejoin="round"/>
<path d="M17.5 46.375H52.5" stroke="white" stroke-width="1.5" stroke-linecap="round" stroke-linejoin="round"/>
<path d="M15.75 51.625C28.2497 55.7632 41.7503 55.7632 54.25 51.625" stroke="white" stroke-width="1.5" stroke-linecap="round" stroke-linejoin="round"/>
<path d="M14 56.875C27.5625 61.825 42.4375 61.825 56 56.875" stroke="white" stroke-width="1.5" stroke-linecap="round" stroke-linejoin="round"/>
</svg>
