<?xml version="1.0" encoding="iso-8859-1"?>
<!-- Uploaded to: SVG Repo, www.svgrepo.com, Generator: SVG Repo Mixer Tools -->
<svg version="1.1" id="Layer_1" xmlns="http://www.w3.org/2000/svg" xmlns:xlink="http://www.w3.org/1999/xlink" 
	 viewBox="0 0 512 512" xml:space="preserve">
<polygon style="fill:#EE9E82;" points="400.851,432.344 111.968,432.344 167.74,328.372 344.113,328.372 "/>
<polygon style="fill:#FFAA8C;" points="344.113,328.372 167.74,328.372 184.464,167.828 328.39,167.828 "/>
<rect x="47.593" y="456.542" style="fill:#DC9178;" width="416.814" height="48.094"/>
<polygon style="fill:#FFAA8C;" points="320.625,432.344 191.375,432.344 216.037,328.372 296.416,328.372 "/>
<polygon style="fill:#FFB99B;" points="296.416,328.372 216.037,328.372 223.937,167.828 288.582,167.828 "/>
<path style="fill:#504B5A;" d="M272.667,456.546h-32.4v-68.287c0-2.213,2.132-4.008,4.345-4.008h24.047
	c2.213,0,4.008,1.794,4.008,4.008V456.546z"/>
<rect x="223.937" y="121.317" style="fill:#D2555A;" width="64.646" height="46.511"/>
<rect x="231.452" y="87.862" style="fill:#FF6464;" width="49.096" height="33.45"/>
<rect x="231.452" y="63.624" style="fill:#A0D2F0;" width="49.096" height="24.237"/>
<polygon style="fill:#DCDBDE;" points="256,38.909 224.438,63.624 288.063,63.624 "/>
<polygon style="fill:#B9B7BD;" points="240.265,456.391 47.593,456.391 111.968,432.344 240.265,432.344 "/>
<rect x="240.269" y="456.391" style="fill:#736F7B;" width="32.283" height="40.579"/>
<polygon style="fill:#B9B7BD;" points="272.553,456.391 464.407,456.391 400.851,432.344 272.553,432.344 "/>
<path d="M480.438,496.971h-8.517v-33.065h0.501c4.15,0,7.515-3.365,7.515-7.515s-3.365-7.515-7.515-7.515h-6.653l-60.209-22.578
	L351.5,325.9l-15.057-150.572c4.016-0.151,7.228-3.447,7.228-7.5c0-4.15-3.365-7.515-7.515-7.515h-7.991c-0.003,0-0.007,0-0.01,0
	h-32.579v-33.065h0.501c4.15,0,7.515-3.365,7.515-7.515c0-4.15-3.365-7.515-7.515-7.515h-8.517V95.186h0.501
	c4.15,0,7.515-3.365,7.515-7.515c0-4.15-3.365-7.515-7.515-7.515h-0.501v-9.018h0.489c0.002,0,0.004,0.001,0.006,0.001
	c0.01,0,0.02-0.002,0.031-0.002c0.268,0,0.531-0.017,0.792-0.044c0.064-0.007,0.127-0.021,0.191-0.029
	c0.208-0.028,0.415-0.061,0.617-0.106c0.077-0.017,0.152-0.04,0.229-0.059c0.186-0.047,0.37-0.099,0.55-0.16
	c0.087-0.029,0.172-0.062,0.258-0.094c0.165-0.063,0.328-0.131,0.488-0.204c0.092-0.043,0.183-0.086,0.274-0.131
	c0.15-0.077,0.297-0.161,0.441-0.248c0.09-0.054,0.18-0.104,0.269-0.163c0.168-0.11,0.33-0.231,0.487-0.355
	c0.072-0.057,0.145-0.111,0.216-0.171c0.183-0.154,0.36-0.318,0.528-0.49c0.063-0.064,0.122-0.133,0.182-0.2
	c0.131-0.144,0.257-0.291,0.377-0.444c0.028-0.036,0.06-0.066,0.087-0.103c0.034-0.045,0.061-0.093,0.094-0.139
	c0.083-0.116,0.162-0.234,0.239-0.355c0.058-0.092,0.114-0.184,0.168-0.278c0.068-0.118,0.131-0.237,0.193-0.36
	c0.051-0.102,0.102-0.204,0.148-0.309c0.052-0.116,0.1-0.233,0.145-0.353c0.044-0.113,0.087-0.227,0.125-0.342
	c0.038-0.113,0.071-0.228,0.104-0.345c0.035-0.124,0.068-0.248,0.096-0.374c0.025-0.11,0.046-0.221,0.066-0.334
	c0.024-0.134,0.045-0.27,0.061-0.404c0.013-0.107,0.023-0.214,0.031-0.324c0.011-0.142,0.018-0.285,0.022-0.427
	c0.001-0.058,0.008-0.112,0.008-0.169c0-0.054-0.007-0.105-0.008-0.159c-0.003-0.135-0.01-0.27-0.02-0.405
	c-0.009-0.12-0.02-0.24-0.034-0.359c-0.014-0.116-0.033-0.231-0.053-0.348c-0.022-0.131-0.046-0.263-0.075-0.392
	c-0.023-0.103-0.051-0.205-0.079-0.308c-0.036-0.133-0.073-0.267-0.116-0.398c-0.034-0.101-0.072-0.201-0.11-0.302
	c-0.047-0.124-0.094-0.248-0.147-0.369c-0.048-0.108-0.101-0.213-0.154-0.32c-0.054-0.107-0.107-0.215-0.166-0.32
	c-0.064-0.114-0.134-0.224-0.203-0.336c-0.058-0.092-0.115-0.184-0.177-0.273c-0.078-0.112-0.161-0.221-0.246-0.33
	c-0.066-0.084-0.131-0.168-0.2-0.249c-0.085-0.1-0.175-0.196-0.267-0.293c-0.081-0.086-0.163-0.17-0.248-0.252
	c-0.085-0.082-0.174-0.161-0.265-0.24c-0.102-0.089-0.206-0.176-0.314-0.261c-0.042-0.033-0.079-0.069-0.121-0.101l-25.553-19.164
	c2.655-1.159,4.512-3.804,4.512-6.886c0-4.15-3.365-7.515-7.515-7.515h-0.501V7.515C263.515,3.365,260.15,0,256,0
	c-4.15,0-7.515,3.365-7.515,7.515v16.532h-0.501c-4.15,0-7.515,3.365-7.515,7.515c0,3.082,1.858,5.727,4.512,6.886l-25.553,19.164
	c-0.042,0.032-0.08,0.068-0.121,0.101c-0.107,0.084-0.211,0.171-0.314,0.261c-0.09,0.079-0.178,0.158-0.265,0.24
	c-0.085,0.082-0.167,0.167-0.248,0.252c-0.091,0.096-0.181,0.192-0.267,0.293c-0.069,0.081-0.134,0.165-0.2,0.249
	c-0.084,0.108-0.168,0.217-0.246,0.33c-0.062,0.088-0.119,0.18-0.177,0.273c-0.07,0.11-0.14,0.221-0.203,0.335
	c-0.059,0.105-0.112,0.213-0.166,0.321c-0.052,0.105-0.105,0.21-0.153,0.318c-0.053,0.121-0.101,0.245-0.148,0.37
	c-0.038,0.1-0.076,0.199-0.11,0.301c-0.043,0.131-0.08,0.265-0.116,0.398c-0.028,0.102-0.056,0.204-0.079,0.308
	c-0.029,0.129-0.053,0.26-0.075,0.392c-0.02,0.115-0.038,0.23-0.053,0.348c-0.014,0.118-0.025,0.238-0.034,0.359
	c-0.01,0.135-0.017,0.27-0.02,0.405c-0.001,0.056-0.008,0.107-0.008,0.161c0,0.057,0.007,0.111,0.008,0.167
	c0.003,0.142,0.01,0.285,0.022,0.427c0.009,0.108,0.019,0.216,0.031,0.324c0.017,0.135,0.038,0.27,0.062,0.404
	c0.02,0.112,0.041,0.223,0.066,0.334c0.028,0.125,0.061,0.249,0.096,0.374c0.032,0.116,0.066,0.23,0.104,0.345
	c0.038,0.115,0.081,0.228,0.125,0.342c0.046,0.119,0.094,0.236,0.146,0.353c0.046,0.104,0.097,0.206,0.148,0.309
	c0.061,0.122,0.125,0.241,0.193,0.36c0.054,0.093,0.11,0.185,0.168,0.278c0.077,0.121,0.156,0.239,0.239,0.355
	c0.033,0.046,0.06,0.094,0.094,0.139c0.027,0.036,0.059,0.066,0.086,0.102c0.12,0.154,0.247,0.303,0.379,0.447
	c0.06,0.066,0.118,0.134,0.179,0.197c0.171,0.175,0.351,0.342,0.538,0.499c0.065,0.055,0.133,0.104,0.199,0.157
	c0.161,0.126,0.326,0.248,0.496,0.361c0.086,0.057,0.175,0.107,0.264,0.16c0.145,0.088,0.294,0.172,0.446,0.25
	c0.089,0.046,0.179,0.088,0.272,0.13c0.16,0.074,0.324,0.142,0.49,0.205c0.085,0.032,0.17,0.065,0.257,0.094
	c0.18,0.061,0.365,0.113,0.551,0.16c0.076,0.02,0.152,0.042,0.229,0.059c0.202,0.045,0.41,0.078,0.618,0.106
	c0.064,0.009,0.127,0.022,0.191,0.029c0.26,0.028,0.524,0.044,0.792,0.044c0.01,0.001,0.021,0.002,0.031,0.002
	c0.002,0,0.004-0.001,0.006-0.001h0.487v9.018h-0.501c-4.15,0-7.515,3.365-7.515,7.515s3.365,7.515,7.515,7.515h0.501v17.033h-8.517
	c-4.15,0-7.515,3.365-7.515,7.515s3.365,7.515,7.515,7.515h0.501v33.065h-32.566c-0.012,0-0.024,0-0.036,0h-7.978
	c-4.15,0-7.515,3.365-7.515,7.515c0,4.053,3.212,7.348,7.228,7.5l-15.057,150.572l-54.061,100.399L46.23,448.877h-6.653
	c-4.15,0-7.515,3.365-7.515,7.515s3.365,7.515,7.515,7.515h0.501v33.065h-8.517c-4.15,0-7.515,3.365-7.515,7.515
	S27.412,512,31.562,512h448.877c4.15,0,7.515-3.365,7.515-7.515S484.588,496.971,480.438,496.971z M339.684,335.656l48.017,89.174
	h-61.597l-20.578-89.174H339.684z M326.031,448.877h-46.485v-9.018h37.467L326.031,448.877z M321.34,175.342l14.528,145.284h-32.642
	l-7.264-145.284H321.34z M256,48.971l9.519,7.139h-19.037L256,48.971z M239.468,71.139h33.065v9.018h-33.065V71.139z
	 M239.468,95.186h33.065v17.033h-33.065V95.186z M231.452,127.249h49.096v33.065h-49.096V127.249z M231.086,175.342h49.828
	l7.264,145.284h-64.357L231.086,175.342z M190.66,175.342h25.378l-7.264,145.284h-32.642L190.66,175.342z M172.317,335.656h34.159
	l-20.578,89.174H124.3L172.317,335.656z M160.313,496.971H55.108v-33.065h105.205V496.971z M164.716,448.877H89.034l24.047-9.018
	h60.652L164.716,448.877z M232.454,496.971h-57.112v-33.065h57.112V496.971z M232.454,448.877h-46.485l9.018-9.018h37.467V448.877z
	 M264.517,496.971h-17.033v-33.065h17.033V496.971z M264.517,448.877h-17.033v-9.018h17.033V448.877z M264.517,424.83h-17.033
	v-33.065h17.033V424.83z M272.031,376.736h-32.063c-4.15,0-7.515,3.365-7.515,7.515v40.579h-31.133l20.578-89.174h68.2
	l20.578,89.174h-31.132V384.25C279.546,380.1,276.181,376.736,272.031,376.736z M336.658,496.971h-57.112v-33.065h57.112V496.971z
	 M338.267,439.859h60.652l24.047,9.018h-75.682L338.267,439.859z M456.892,496.971H351.687v-33.065h105.205V496.971z"/>
<path d="M256,272.532c-4.15,0-7.515,3.365-7.515,7.515v24.047c0,4.15,3.365,7.515,7.515,7.515c4.15,0,7.515-3.365,7.515-7.515
	v-24.047C263.515,275.897,260.15,272.532,256,272.532z"/>
<path d="M256,192.376c-4.15,0-7.515,3.365-7.515,7.515v24.047c0,4.15,3.365,7.515,7.515,7.515c4.15,0,7.515-3.365,7.515-7.515
	V199.89C263.515,195.74,260.15,192.376,256,192.376z"/>
</svg>