<svg width="90" height="90" viewBox="0 0 90 90" fill="none" xmlns="http://www.w3.org/2000/svg">
<g clip-path="url(#clip0_46_156)">
<path d="M65.6474 33.7477C66.8607 34.5531 68.497 34.2225 69.3025 33.0094C70.1079 31.7962 69.7772 30.1598 68.5642 29.3544L46.4583 14.6782C45.5746 14.0915 44.4254 14.0915 43.5415 14.6782L21.4358 29.3544C20.2226 30.1598 19.8921 31.7962 20.6975 33.0094C21.503 34.2226 23.1393 34.5531 24.3526 33.7477L45 20.0399L65.6474 33.7477Z" fill="#52489C"/>
<path d="M54.9244 40.867C56.1377 41.6724 57.774 41.342 58.5795 40.1287C59.3849 38.9155 59.0544 37.2791 57.8412 36.4737L46.4583 28.9165C45.5746 28.3298 44.4254 28.3298 43.5415 28.9165L32.1587 36.4737C30.9454 37.2791 30.6149 38.9155 31.4204 40.1287C32.2258 41.342 33.8621 41.6724 35.0754 40.867L45 34.2782L54.9244 40.867Z" fill="#52489C"/>
<path d="M88.8216 57.0415L81.4071 52.1189L88.8216 47.1965C90.3927 46.1535 90.3927 43.8463 88.8216 42.8032L81.4071 37.8808L88.8216 32.9584C90.3927 31.9153 90.3927 29.6082 88.8216 28.5651L46.4583 0.440129C45.5746 -0.146628 44.4252 -0.146628 43.5415 0.440129L1.17826 28.5651C-0.392871 29.6082 -0.392871 31.9153 1.17826 32.9584L8.59272 37.8808L1.17826 42.8032C-0.392871 43.8463 -0.392871 46.1535 1.17826 47.1965L8.59272 52.1189L1.17826 57.0415C-0.392871 58.0846 -0.392871 60.3917 1.17826 61.4348L43.5415 89.5598C44.4254 90.1466 45.5746 90.1466 46.4583 89.5598L88.8216 61.4348C90.3927 60.3919 90.3927 58.0846 88.8216 57.0415ZM45 5.80163L82.5961 30.7617L45 55.7218L7.40391 30.7617L45 5.80163ZM13.3601 41.0458L43.5417 61.0834C44.4255 61.6702 45.5748 61.6702 46.4585 61.0834L76.6401 41.0458L82.5961 45L45 69.96L7.40391 45L13.3601 41.0458ZM45 84.1983L7.40391 59.2383L13.3599 55.2841L43.5415 75.3217C44.4254 75.9085 45.5746 75.9085 46.4583 75.3217L76.6399 55.2841L82.5961 59.2383L45 84.1983Z" fill="#52489C"/>
</g>
<defs>
<clipPath id="clip0_46_156">
<rect width="90" height="90" fill="white"/>
</clipPath>
</defs>
</svg>
