<?xml version="1.0" encoding="iso-8859-1"?>
<!-- Uploaded to: SVG Repo, www.svgrepo.com, Generator: SVG Repo Mixer Tools -->
<svg height="800px" width="800px" version="1.1" id="Layer_1" xmlns="http://www.w3.org/2000/svg" xmlns:xlink="http://www.w3.org/1999/xlink" 
	 viewBox="0 0 512 512" xml:space="preserve">
<circle style="fill:#ADD9FF;" cx="210.552" cy="256" r="202.382"/>
<path style="fill:#E4F2FF;" d="M212.141,105.262C279.525,106.3,344.779,173.393,344.779,256S279.525,405.7,212.14,406.738
	c-0.527,0.009-1.055,0.016-1.59,0.016c-0.536,0-1.063-0.008-1.59-0.016C141.568,405.7,76.314,338.607,76.314,256
	s65.254-149.7,132.646-150.738c0.527-0.008,1.055-0.016,1.59-0.016C211.086,105.245,211.614,105.253,212.141,105.262z"/>
<path style="fill:#C8E6FF;" d="M212.141,105.262c82.527,0.844,149.156,68.009,149.156,150.738s-66.63,149.894-149.156,150.738
	C279.525,405.7,333.885,338.607,333.885,256S279.525,106.3,212.141,105.262z"/>
<path style="fill:#FFFFFF;" d="M208.96,105.262C141.568,106.3,87.208,173.393,87.208,256s54.36,149.7,121.753,150.738
	C126.426,405.894,59.796,338.729,59.796,256S126.426,106.106,208.96,105.262z"/>
<ellipse style="fill:#4693BD;" cx="465.528" cy="144.101" rx="38.302" ry="55.819"/>
<path style="fill:#ED2F49;" d="M254.739,169.413c-2.503,0-4.958,0.187-7.356,0.541l-36.836,192.241l84.538-111.738
	c6.413-8.475,10.219-19.032,10.219-30.479C305.303,192.052,282.665,169.413,254.739,169.413z"/>
<path style="fill:#FE7074;" d="M173.712,169.955c-2.398-0.354-4.853-0.541-7.356-0.541c-27.926,0-50.565,22.638-50.565,50.565
	c0,11.447,3.806,22.004,10.219,30.479l84.538,111.738L173.712,169.955z"/>
<path style="fill:#FF455E;" d="M278.231,219.978c0-25.419-13.399-46.451-30.847-50.023c-16.079,2.376-29.539,12.426-36.836,26.32
	c-7.297-13.894-20.757-23.944-36.836-26.32c-17.448,3.572-30.847,24.603-30.847,50.023c0,11.447,2.718,22.004,7.3,30.479
	l60.384,111.738l60.384-111.738C275.512,241.982,278.231,231.425,278.231,219.978z"/>
<g>
	<path style="fill:#1D2328;" d="M499.347,100.006c-8.805-12.83-20.817-19.896-33.824-19.896c-13.006,0-25.018,7.066-33.824,19.896
		c-8.159,11.889-12.653,27.549-12.653,44.092c0,16.544,4.494,32.203,12.653,44.092c6.925,10.091,15.837,16.596,25.653,18.923V423.72
		c0,4.512,3.657,8.17,8.17,8.17c4.513,0,8.17-3.658,8.17-8.17V207.113c9.815-2.327,18.728-8.833,25.653-18.923
		C507.506,176.3,512,160.642,512,144.098C512,127.554,507.506,111.895,499.347,100.006z M465.523,191.746
		c-16.335,0-30.136-21.82-30.136-47.648s13.801-47.649,30.136-47.649c16.335,0,30.136,21.82,30.136,47.649
		C495.66,169.925,481.858,191.746,465.523,191.746z"/>
	<path style="fill:#1D2328;" d="M210.546,45.454C94.451,45.454,0,139.905,0,256s94.451,210.546,210.546,210.546
		S421.094,372.095,421.094,256S326.643,45.454,210.546,45.454z M210.546,450.206C103.461,450.206,16.34,363.085,16.34,256
		S103.461,61.794,210.546,61.794c107.086,0,194.206,87.121,194.206,194.206S317.633,450.206,210.546,450.206z"/>
	<path style="fill:#1D2328;" d="M254.739,161.243c-17.159,0-33.265,7.519-44.299,20.188c-10.699-12.359-26.494-20.188-44.085-20.188
		c-32.387,0-58.735,26.348-58.735,58.735c0,12.899,4.106,25.144,11.874,35.409l84.538,111.738c1.544,2.041,3.955,3.241,6.515,3.241
		s4.971-1.199,6.515-3.241l84.537-111.737c7.768-10.265,11.874-22.509,11.874-35.41
		C313.474,187.591,287.125,161.243,254.739,161.243z M288.569,245.528l-78.021,103.125l-78.022-103.126
		c-5.603-7.404-8.565-16.239-8.565-25.55c0-23.377,19.018-42.395,42.395-42.395c23.138,0,41.962,18.824,41.962,41.962
		c0,4.512,3.658,8.17,8.17,8.17s8.17-3.658,8.17-8.17c0-8.339-1.76-16.276-4.928-23.456c7.859-11.503,20.945-18.505,35.01-18.505
		c23.376,0,42.394,19.018,42.394,42.395C297.133,229.289,294.171,238.124,288.569,245.528z"/>
	<path style="fill:#1D2328;" d="M210.546,97.086c-87.625,0-158.914,71.288-158.914,158.914s71.289,158.914,158.914,158.914
		c36.095,0,71.44-12.442,99.526-35.033c3.516-2.828,4.073-7.971,1.245-11.487c-2.827-3.516-7.97-4.074-11.487-1.245
		c-25.558,20.558-56.432,31.425-89.284,31.425c-78.615,0-142.573-63.958-142.573-142.573s63.958-142.573,142.573-142.573
		S353.12,177.384,353.12,256c0,32.853-10.866,63.727-31.425,89.284c-2.829,3.516-2.271,8.659,1.245,11.487
		c3.518,2.828,8.66,2.269,11.487-1.246c22.591-28.085,35.033-63.43,35.033-99.526C369.46,168.375,298.172,97.086,210.546,97.086z"/>
</g>
</svg>