<svg width="175" height="26" viewBox="0 0 175 26" fill="none" xmlns="http://www.w3.org/2000/svg">
<g clip-path="url(#clip0_981_116)">
<path d="M29.4189 22.0999V3.05341C29.4189 2.06434 29.6443 1.32172 30.0949 0.827351C30.545 0.332826 31.1281 0.0850416 31.8419 0.0850416C32.5784 0.0850416 33.1742 0.330229 33.6307 0.819305C34.0864 1.30848 34.315 2.05278 34.315 3.05341V22.0999C34.315 23.1 34.0864 23.8477 33.6307 24.3423C33.1742 24.8375 32.5784 25.085 31.8419 25.085C31.1385 25.085 30.559 24.8346 30.1028 24.3343C29.6468 23.834 29.4189 23.0888 29.4189 22.0999" fill="#100F0D" fill-opacity="0.2"/>
<path d="M162.427 5.15753C158.333 5.15753 155.002 8.49335 155.002 12.5931C155.002 16.6924 158.333 20.028 162.427 20.028C166.521 20.028 169.853 16.6924 169.853 12.5931C169.853 8.49335 166.521 5.15753 162.427 5.15753ZM162.427 25.085C155.548 25.085 149.951 19.4808 149.951 12.5931C149.951 5.70441 155.548 0.100547 162.427 0.100547C169.307 0.100547 174.903 5.70441 174.903 12.5931C174.903 19.4808 169.307 25.085 162.427 25.085Z" fill="#100F0D" fill-opacity="0.2"/>
<path d="M106.422 5.15753C102.328 5.15753 98.9965 8.49335 98.9965 12.5931C98.9965 16.6924 102.328 20.028 106.422 20.028C110.516 20.028 113.847 16.6924 113.847 12.5931C113.847 8.49335 110.516 5.15753 106.422 5.15753ZM106.422 25.085C99.5424 25.085 93.946 19.4808 93.946 12.5931C93.946 5.70441 99.5424 0.100547 106.422 0.100547C113.301 0.100547 118.898 5.70441 118.898 12.5931C118.898 19.4808 113.301 25.085 106.422 25.085Z" fill="#100F0D" fill-opacity="0.2"/>
<path d="M134.362 19.9668C133.759 20.0062 133.109 20.0131 132.411 20.0131H129.135V5.15705H132.411C133.109 5.15705 133.759 5.16479 134.362 5.20319C136.528 5.46241 138.409 6.65601 139.591 8.37229C140.415 9.56729 140.9 11.0119 140.903 12.5701C140.903 12.5742 140.903 12.5781 140.903 12.5824V12.5879C140.903 12.5919 140.903 12.5959 140.903 12.5999C140.9 14.1581 140.415 15.6028 139.591 16.7981C138.409 18.5143 136.528 19.7073 134.362 19.9668ZM145.954 12.585V12.5816C145.953 9.8247 145.055 7.27507 143.54 5.20637C141.336 2.19782 137.823 0.211952 133.849 0.0948966C133.725 0.0911025 133.602 0.0850416 133.478 0.0850416C133.471 0.0850416 127.213 0.093114 127.213 0.093114C126.143 0.093114 125.369 0.337105 124.89 0.82478C124.411 1.31256 124.171 2.10073 124.171 3.1901V21.9799C124.171 23.0693 124.411 23.8572 124.89 24.3455C125.369 24.8335 126.143 25.0772 127.213 25.0772C127.213 25.0772 133.471 25.085 133.478 25.085C133.602 25.085 133.725 25.0789 133.849 25.0755C137.823 24.958 141.336 22.9723 143.54 19.9636C145.055 17.8949 145.953 15.3453 145.954 12.5885V12.585Z" fill="#100F0D" fill-opacity="0.2"/>
<path d="M86.8805 0.196266C85.9688 -0.08732 84.9839 0.27146 84.4529 1.08153L76.9307 12.555L69.4087 1.08153C68.8783 0.27146 67.8929 -0.08732 66.9812 0.196266C66.0698 0.480158 65.4475 1.34044 65.4475 2.31561V22.7074C65.4475 23.9311 66.4166 24.9229 67.6113 24.9229C68.8068 24.9229 69.7757 23.9311 69.7757 22.7074V9.59316L75.1165 17.7386C75.1201 17.7443 75.1236 17.7494 75.1272 17.7552L75.1338 17.7649C75.1402 17.775 75.1478 17.7839 75.1544 17.794C75.1877 17.8427 75.2221 17.8913 75.2599 17.9377C75.2765 17.9584 75.2938 17.9768 75.3108 17.9963C75.3408 18.0305 75.3698 18.0649 75.4016 18.0974C75.4301 18.1266 75.4606 18.1539 75.4908 18.182C75.5127 18.2019 75.5346 18.2231 75.5575 18.2426C75.6002 18.2785 75.6434 18.3106 75.6882 18.3422C75.7009 18.3511 75.7121 18.3618 75.7251 18.3704C75.7266 18.3718 75.7284 18.3724 75.7307 18.3738C75.7782 18.4062 75.8275 18.4355 75.8779 18.4642C75.8916 18.4722 75.9054 18.4817 75.9193 18.4889C75.9567 18.5095 75.9954 18.5265 76.0345 18.5449C76.2535 18.6473 76.4829 18.7114 76.7138 18.7352C76.7158 18.7352 76.7171 18.7354 76.7184 18.736C76.7644 18.74 76.8102 18.7409 76.8554 18.7429C76.8806 18.7438 76.906 18.7461 76.9307 18.7461C76.9564 18.7461 76.9811 18.7438 77.0062 18.7429C77.0523 18.7409 77.0978 18.74 77.1435 18.736C77.1448 18.7354 77.1466 18.7352 77.1479 18.7352C77.3793 18.7114 77.6084 18.6473 77.8276 18.5449C77.8663 18.5265 77.9054 18.5095 77.9426 18.4889C77.9571 18.4817 77.97 18.4722 77.9845 18.4642C78.0346 18.4355 78.0837 18.4062 78.1313 18.3738C78.1335 18.3724 78.1356 18.3718 78.1374 18.3704C78.1501 18.3618 78.1613 18.3511 78.1737 18.3422C78.2185 18.3106 78.2625 18.2785 78.3047 18.2426C78.3278 18.2231 78.3492 18.2019 78.3721 18.1812C78.4016 18.1539 78.4318 18.1266 78.4603 18.0979C78.4926 18.0649 78.5216 18.0302 78.5514 17.996C78.5686 17.9768 78.5862 17.9579 78.6022 17.9377C78.6398 17.8913 78.6742 17.8427 78.7078 17.794C78.7144 17.7839 78.722 17.775 78.7286 17.7649L78.7347 17.7552C78.7385 17.7494 78.7418 17.7443 78.7459 17.7386L84.086 9.59316V22.7074C84.086 23.9311 85.0543 24.9229 86.2511 24.9229C87.4453 24.9229 88.4152 23.9311 88.4152 22.7074V2.31561C88.4152 1.34044 87.7921 0.480158 86.8805 0.196266" fill="#100F0D" fill-opacity="0.2"/>
<path d="M58.0819 24.3252H41.9041C41.0532 24.3252 40.1077 23.7922 39.7576 22.9626C39.4071 22.1339 39.3354 21.0054 40.0889 20.1061L53.3224 4.73138H42.3896C41.1943 4.73138 40.225 3.69484 40.225 2.41599C40.225 1.13717 41.1943 0.356152 42.3896 0.356152H57.1324C57.983 0.356152 58.8642 0.491617 59.6339 1.33609C60.3373 2.10776 60.3063 3.77322 59.5185 4.76639L46.732 19.695H58.0819C59.2774 19.695 60.1476 20.7316 60.1476 22.0098C60.1476 23.2884 59.2774 24.3252 58.0819 24.3252" fill="#100F0D" fill-opacity="0.2"/>
<path d="M13.2894 25.085C9.69953 25.085 6.4438 23.6597 4.12201 21.0717C2.07647 18.7916 0.903809 15.7873 0.903809 12.829C0.903809 3.54519 8.6111 0.085346 13.4696 0.085346C18.2464 0.085346 21.753 2.43086 21.8998 2.53022C22.9756 3.2613 23.2635 4.73848 22.5428 5.82954C21.8238 6.9169 20.3743 7.21083 19.2995 6.488C19.2368 6.44782 16.7493 4.84123 13.4696 4.84123C10.4243 4.84123 6.22474 6.85373 6.22474 12.829C6.22474 16.2283 8.74997 20.2376 13.3799 20.2376C15.9849 20.2376 17.8164 19.5426 18.8811 18.8642V15.3287H15.2735C13.9785 15.3287 12.9286 14.2643 12.9286 12.9507C12.9286 11.6375 13.9785 10.5728 15.2735 10.5728H21.2261C22.521 10.5728 23.5708 11.6375 23.5708 12.9507V20.0236C23.5708 20.667 23.3139 21.282 22.8592 21.7302C21.2871 23.2777 17.8376 25.085 13.2894 25.085Z" fill="#100F0D" fill-opacity="0.2"/>
</g>
<defs>
<clipPath id="clip0_981_116">
<rect width="174" height="25" fill="white" transform="translate(0.903809 0.0849609)"/>
</clipPath>
</defs>
</svg>
