<svg width="90" height="90" viewBox="0 0 90 90" fill="none" xmlns="http://www.w3.org/2000/svg">
<path d="M34.589 12.9593C34.9323 13.3026 35.3821 13.4742 35.832 13.4742C36.2818 13.4742 36.7318 13.3026 37.0749 12.9593C37.7613 12.2729 37.7613 11.1598 37.0749 10.4732L33.0945 6.49284C32.4081 5.80659 31.295 5.80659 30.6084 6.49284C29.922 7.17926 29.922 8.29231 30.6084 8.97891L34.589 12.9593Z" fill="#52489C"/>
<path d="M52.4102 13.474C52.86 13.474 53.31 13.3024 53.6532 12.9591L57.6336 8.97873C58.32 8.2923 58.32 7.17926 57.6336 6.49265C56.9471 5.8064 55.8341 5.8064 55.1475 6.49265L51.1671 10.473C50.4807 11.1595 50.4807 12.2725 51.1671 12.9591C51.5104 13.3024 51.9604 13.474 52.4102 13.474Z" fill="#52489C"/>
<path d="M44.1211 9.14467C45.0919 9.14467 45.8789 8.35769 45.8789 7.38686V1.75781C45.8789 0.786973 45.0919 0 44.1211 0C43.1503 0 42.3633 0.786973 42.3633 1.75781V7.38686C42.3633 8.35769 43.1503 9.14467 44.1211 9.14467Z" fill="#52489C"/>
<path d="M75.3349 48.4105C74.6065 47.6822 73.7318 47.1538 72.7771 46.8529C73.4774 45.8182 73.8529 44.6004 73.851 43.3267C73.851 41.6406 73.1948 40.0558 72.0033 38.8642C71.1401 38.0011 70.0713 37.4187 68.9076 37.1629C69.1513 36.4853 69.2777 35.7637 69.2766 35.0233C69.2766 33.3372 68.6204 31.7524 67.429 30.5608C66.7318 29.8638 65.9007 29.3498 64.9937 29.0431L72.2582 21.7786C73.4521 20.5845 74.1083 18.9989 74.1059 17.3162C74.1059 15.6 73.4298 13.9955 72.202 12.7979C69.7417 10.3992 65.7257 10.4618 63.2496 12.9375L44.055 32.1321C43.9093 31.2335 43.7635 30.3349 43.6173 29.436C43.0703 26.0657 41.2685 23.0792 38.5421 21.0252C36.8812 19.777 34.6076 19.9383 33.1363 21.4096C32.452 22.0939 32.0317 23.0106 31.9526 23.9917L30.5956 40.9468C30.3346 44.203 28.9188 47.2683 26.6089 49.5782L25.2473 50.9398L24.8797 50.5722C24.1931 49.886 23.0802 49.886 22.3938 50.5722L13.3321 59.6338C13.0025 59.9635 12.8173 60.4105 12.8173 60.8767C12.8173 61.3429 13.0025 61.7901 13.3321 62.1197L21.4216 70.2091C22.108 70.8954 23.221 70.8954 23.9077 70.2091C24.5941 69.5227 24.5941 68.4096 23.9077 67.723L17.0611 60.8767L23.6371 54.3009L48.5165 79.1803L41.9407 85.7561L35.0944 78.9096C34.4079 78.2232 33.2949 78.2232 32.6083 78.9096C31.9219 79.596 31.9219 80.7091 32.6083 81.3957L40.6977 89.4851C41.041 89.8282 41.4909 90 41.9407 90C42.3905 90 42.8405 89.8282 43.1836 89.4851L52.2453 80.4234C52.9318 79.737 52.9318 78.6239 52.2453 77.9373L51.8892 77.5812C52.4229 77.0968 53.0019 76.6624 53.6205 76.2913L57.301 74.084C59.4292 72.8084 61.3988 71.2712 63.1552 69.515L75.3351 57.3351C76.529 56.1412 77.185 54.5556 77.1827 52.8727C77.1826 51.1868 76.5265 49.6021 75.3349 48.4105ZM72.849 54.8494L60.6691 67.0292C59.1165 68.5821 57.375 69.9412 55.4933 71.0692L51.8124 73.2767C50.9472 73.7956 50.1381 74.4054 49.3995 75.0916L27.7335 53.4255L29.0951 52.0639C31.995 49.1641 33.7725 45.3155 34.1003 41.2274L35.4574 24.2729C35.4697 24.1198 35.5254 23.9927 35.6226 23.8955C35.7543 23.7638 36.0926 23.5817 36.4286 23.8343C38.4256 25.339 39.7462 27.5284 40.1474 29.9997C40.4773 32.0293 40.8057 34.0572 41.134 36.0851C41.2395 36.7365 41.7009 37.274 42.329 37.4767C42.9569 37.6797 43.6456 37.5136 44.1123 37.0471L65.7355 15.4236C66.8579 14.3012 68.6577 14.2525 69.7475 15.3149C70.2909 15.8451 70.5902 16.5559 70.5902 17.3188C70.5913 18.0631 70.3007 18.7643 69.7723 19.2927C66.0712 22.9936 56.5326 32.5322 52.9606 36.1044C52.2742 36.7908 52.2742 37.9039 52.9606 38.5903C53.3039 38.9336 53.7537 39.1052 54.2035 39.1052C54.6534 39.1052 55.1034 38.9334 55.4465 38.5903L60.9899 33.0467C62.0796 31.9572 63.8532 31.9568 64.9429 33.0469C65.4704 33.5744 65.761 34.2763 65.761 35.0258C65.762 35.7702 65.4715 36.4712 64.9429 36.9998C63.7631 38.1795 60.6185 41.3242 59.3993 42.5433C58.7129 43.2297 58.7129 44.3427 59.3993 45.0293C59.7426 45.3726 60.1924 45.5442 60.6422 45.5442C61.0921 45.5442 61.5421 45.3726 61.8852 45.0293L65.5643 41.3502C66.0925 40.822 66.7944 40.5309 67.5408 40.5309C68.2871 40.5309 68.989 40.8218 69.5173 41.3502C70.0448 41.8778 70.3353 42.5796 70.3353 43.3292C70.3364 44.0736 70.0458 44.7746 69.5173 45.303C69.1082 45.7121 66.1637 48.6566 65.8382 48.9821C65.1517 49.6686 65.1517 50.7816 65.8382 51.4682C66.1815 51.8115 66.6313 51.9831 67.0811 51.9831C67.5309 51.9831 67.9809 51.8115 68.3241 51.4682L68.8957 50.8966C69.4239 50.3683 70.126 50.0772 70.8722 50.0772C71.6185 50.0772 72.3204 50.3682 72.8487 50.8966C73.3762 51.4239 73.6668 52.126 73.6668 52.8755C73.668 53.6198 73.3774 54.3208 72.849 54.8494Z" fill="#52489C"/>
<path d="M28.2579 76.3174C29.2287 76.3174 30.0157 75.5304 30.0157 74.5596C30.0157 73.5888 29.2287 72.8018 28.2579 72.8018C27.2871 72.8018 26.5001 73.5888 26.5001 74.5596C26.5001 75.5304 27.2871 76.3174 28.2579 76.3174Z" fill="#52489C"/>
</svg>
