<?xml version="1.0" encoding="utf-8"?>
<!-- Uploaded to: SVG Repo, www.svgrepo.com, Generator: SVG Repo Mixer Tools -->
<svg width="800px" height="800px" viewBox="0 0 1024 1024" class="icon"  version="1.1" xmlns="http://www.w3.org/2000/svg"><path d="M945.67936 248.35584H75.25376c-18.85184 0-34.1248 14.38208-34.1248 32.11776V883.28192c0 17.73568 15.27296 32.11776 34.1248 32.11776h870.4256c18.84672 0 34.1248-14.38208 34.1248-32.11776V280.4736c0-17.7408-15.27808-32.11776-34.1248-32.11776z" fill="#CE6A6A" /><path d="M869.4272 306.7904H151.50592c-15.54944 0-28.14464 11.86304-28.14464 26.49088v497.19808c0 14.62784 12.60032 26.49088 28.14464 26.49088H869.4272c15.54432 0 28.14976-11.86304 28.14976-26.49088V333.28128c0-14.63296-12.60544-26.49088-28.14976-26.49088z" fill="#F38181" /><path d="M820.18304 556.04736c0 10.78784-7.2448 19.53792-16.18432 19.53792h-235.68896c-8.93952 0-16.18432-8.74496-16.18432-19.53792 0-10.78784 7.2448-19.53792 16.18432-19.53792h235.68896c8.93952 0 16.18432 8.75008 16.18432 19.53792zM820.18304 712.35072c0 10.78784-7.2448 19.53792-16.18432 19.53792h-235.68896c-8.93952 0-16.18432-8.74496-16.18432-19.53792 0-10.78784 7.2448-19.53792 16.18432-19.53792h235.68896c8.93952 0 16.18432 8.74496 16.18432 19.53792z" fill="#FFFFFF" /><path d="M448.26112 419.42016H212.82304a15.47264 15.47264 0 0 0-15.50336 15.44192v289.8176a15.46752 15.46752 0 0 0 15.50336 15.44192h235.43808a15.47264 15.47264 0 0 0 15.50336-15.44192V434.86208a15.47776 15.47776 0 0 0-15.50336-15.44192z" fill="#FFFFFF" /><path d="M356.864 708.27008l-5.59104-0.01024-8.82176 0.0512-119.23456-0.20992 0.01024-5.74464s-2.5344-32.0768 44.71296-40.20224c0 0 35.96288-4.7872 38.5024-14.67392 0 0 1.37216-1.09568 0.37888-12.57984-2.11456-24.45312-18.09408-35.9936-24.5504-45.34784-6.4512-9.36448-6.97344-20.1472-6.97344-20.1472 0.00512-2.69824 1.13664-3.6864 3.0208-5.41184 2.31936-2.14016 1.62816-4.41344 1.18784-6.82496-1.66912-9.15456-1.792-23.8592-0.17408-33.06496 0.37888-10.96192 10.46528-19.75296 10.46528-19.75296 1.8944-1.59744 3.7888-3.35872 5.12-5.47328 0.36864-0.5888 0.71168-1.21856 0.91136-1.88928 0.768-2.51904-1.79712-4.3776-1.28-7.0656 0.47104-2.41664 4.61824-2.52928 7.12704-2.65728 5.65248-0.28672 11.33568-0.50176 16.97792-0.05632 42.22464 3.31264 56.07936 18.88256 56.07936 18.88256 3.28192 3.9424 5.44256 8.76032 6.7328 13.70112 0.38912 1.47456 0.7168 2.97984 0.90112 4.50048 1.30048 7.56224 1.28 15.45216 0.86016 23.0912-0.2048 3.64544-0.62976 7.23456-1.1776 10.83904-0.2816 1.88416-0.13824 3.64032 1.12128 5.15072 1.0496 1.26464 2.2528 2.1504 2.7648 3.80928 0.24576 0.77312 0.3072 1.6128 0.3072 2.41664 0 0-0.5632 10.78784-7.05024 20.1216-6.48704 9.33888-22.50752 20.81792-24.70912 45.2608-1.03424 11.48416 0.33792 12.58496 0.33792 12.58496 2.49856 9.89696 38.44608 14.81216 38.44608 14.81216 47.744 8.94464 44.5696 40.36096 44.5696 40.36096l-0.01024 5.74464-31.44192-0.05632 4.95104-0.06144-4.22912-0.00512-8.77056-0.02048-41.472-0.07168z" fill="#C4BCB1" /><path d="M422.24128 204.93824h176.45056v94.19776H422.24128z" fill="#CE6A6A" /><path d="M463.0016 108.5952h94.92992v116.4288H463.0016z" fill="#C4BCB1" /></svg>