<?xml version="1.0" encoding="utf-8"?>
<!-- Uploaded to: SVG Repo, www.svgrepo.com, Generator: SVG Repo Mixer Tools -->
<svg fill="#000000" version="1.1" id="Layer_1" xmlns="http://www.w3.org/2000/svg" xmlns:xlink="http://www.w3.org/1999/xlink" 
	 width="800px" height="800px" viewBox="0 0 260 239" enable-background="new 0 0 260 239" xml:space="preserve">
<path d="M255.932,189.235l-16.664-11.191l-12.894-17.102l12.091-16.908l-10.072-9.318l-12.115-42.184l8.782-24.79l-4.427-17.661
	l-57.89-23.249l-16.845,4.419l-8.004,9.293l-11.191,3.041l-2.603,8.588l-23.476,3.844L64.886,38.306L50.022,4.077L32.629,16.119
	L19.565,13.54L12.559,2.422L2.001,5.147l6.131,43.352l15.301,25.764l-6.52,7.201l-0.657,19.341l6.787,11.434l17.273,14.864
	l0.462,18.075l12.529,17.37l20.435-3.479l21.287,38.584l30.872,18.465l15.862,3.211l22.308-11.945l9.95,5.376l5.036,17.297
	l28.609,4.403l26.566,2.117l8.661-1.825l2.408-15.862L258,211.3L255.932,189.235z"/>
</svg>