<svg width="90" height="86" viewBox="0 0 90 86" fill="none" xmlns="http://www.w3.org/2000/svg">
<path d="M66.2064 85.2021C66.0365 85.2021 65.8673 85.1782 65.7041 85.131C65.2277 84.9973 64.8233 84.6806 64.5794 84.2501L50.7092 59.7371C50.1986 58.8367 50.5145 57.6928 51.4149 57.1821C51.4158 57.1816 51.4167 57.1811 51.4177 57.1805C57.7361 53.6329 59.9826 45.6349 56.4349 39.3165C52.8873 32.9981 44.8893 30.7518 38.5709 34.2993C32.2525 37.8468 30.0061 45.8449 33.5537 52.1633C34.7335 54.2648 36.4694 56.0006 38.5709 57.1805C39.4722 57.6898 39.7901 58.833 39.281 59.7345C39.2805 59.7354 39.2799 59.7362 39.2794 59.7373L25.4317 84.254C24.921 85.1544 23.7771 85.4703 22.8765 84.9597C22.876 84.9593 22.8755 84.9591 22.8749 84.9588C1.24097 72.7433 -6.39466 45.3032 5.82045 23.669C18.0356 2.03491 45.4759 -5.60055 67.11 6.61474C88.7441 18.83 96.3796 46.2702 84.1645 67.9041C80.138 75.0353 74.2413 80.9321 67.11 84.9586C66.8343 85.1148 66.5234 85.1986 66.2064 85.2021ZM54.8517 59.4335L66.8926 80.7374C86.1927 68.6476 92.0375 43.201 79.9477 23.901C67.8579 4.60097 42.4111 -1.24388 23.1111 10.8459C3.81107 22.9358 -2.03378 48.3823 10.056 67.6824C13.3651 72.9649 17.8286 77.4284 23.1111 80.7374L35.1521 59.4335C27.5878 53.9945 25.8647 43.4535 31.3036 35.8892C36.7425 28.325 47.2835 26.6018 54.8478 32.0408C62.4121 37.4797 64.1352 48.0207 58.6963 55.585C57.6302 57.0677 56.3305 58.3674 54.8478 59.4335H54.8517Z" fill="#52489C"/>
</svg>
