<?xml version="1.0" encoding="utf-8"?>
<!-- Uploaded to: SVG Repo, www.svgrepo.com, Generator: SVG Repo Mixer Tools -->
<svg width="800px" height="800px" viewBox="0 0 1024 1024" class="icon"  version="1.1" xmlns="http://www.w3.org/2000/svg"><path d="M444.01 88.093c111.271 34.067 222.041 97.294 317.617 187.736C857.181 366.226 923.98 471.004 960 576.254L64 935.907 444.01 88.093z" fill="#FCB814" /><path d="M761.626 275.827c-32.916-31.148-67.726-58.828-103.646-83.439 1.84 1.709 3.762 3.264 5.589 4.994 95.557 90.396 221.188 254.01 257.208 359.26L109.003 835.501 64 935.907l896-359.653c-36.02-105.251-102.817-210.029-198.374-300.427z" fill="#020202" /><path d="M817.789 577.987c-5.703 0-11.142-3.281-13.628-8.815-31.362-69.795-80.99-137.961-143.523-197.126-62.584-59.202-134.699-106.2-208.534-135.914-7.649-3.079-11.354-11.779-8.276-19.428 3.084-7.652 11.762-11.375 19.433-8.279 77.27 31.098 152.622 80.175 217.904 141.925 65.347 61.825 117.293 133.259 150.237 206.58 3.384 7.525 0.023 16.363-7.502 19.742a14.871 14.871 0 0 1-6.111 1.315z" fill="#152B3C" /><path d="M477.296 434.535m-63.793 0a63.793 63.793 0 1 0 127.586 0 63.793 63.793 0 1 0-127.586 0Z" fill="#020202" /><path d="M342.805 681.489m-63.792 0a63.792 63.792 0 1 0 127.584 0 63.792 63.792 0 1 0-127.584 0Z" fill="#020202" /><path d="M457.685 454.146m-63.793 0a63.793 63.793 0 1 0 127.586 0 63.793 63.793 0 1 0-127.586 0Z" fill="#FF3B30" /><path d="M323.194 681.489m-63.793 0a63.793 63.793 0 1 0 127.586 0 63.793 63.793 0 1 0-127.586 0Z" fill="#FF3B30" /><path d="M630.552 651.725c-30.376 10.865-47.128 42.385-40.672 73.097l116.305-46.688c-15.512-24.997-46.811-36.722-75.633-26.409z" fill="#FF3B30" /></svg>