<?xml version="1.0" encoding="iso-8859-1"?>
<!-- Uploaded to: SVG Repo, www.svgrepo.com, Generator: SVG Repo Mixer Tools -->
<!DOCTYPE svg PUBLIC "-//W3C//DTD SVG 1.1//EN" "http://www.w3.org/Graphics/SVG/1.1/DTD/svg11.dtd">
<svg height="800px" width="800px" version="1.1" id="Capa_1" xmlns="http://www.w3.org/2000/svg" xmlns:xlink="http://www.w3.org/1999/xlink" 
	 viewBox="0 0 328.191 328.191" xml:space="preserve">
<g>
	<g>
		<g>
			<path style="fill:#EF8829;" d="M165.127,253.025c-0.484,0.103-0.984,0.185-1.501,0.242
				C164.145,253.213,164.643,253.128,165.127,253.025z"/>
			<path style="fill:#EF8829;" d="M159.172,209.761c0.544,0.56,1.756,1.801,3.33,3.539c-7.344,7.599-19.144,16.208-36.342,18.844
				c18.606,15.898,32.376,19.883,38.973,20.879c7.255-1.547,10.572-8.084,10.727-8.398c0.043-0.093,0.047-0.118,0.101-0.204
				C182.621,233.691,161.98,212.649,159.172,209.761z"/>
		</g>
		<g>
			<path style="fill:#EF8829;" d="M101.236,217.544c1.787,0.19,3.516,0.296,5.197,0.337
				C104.753,217.841,103.023,217.734,101.236,217.544z"/>
			<path style="fill:#EF8829;" d="M94.571,210.844c-0.434-0.465-0.849-0.936-1.274-1.403
				C93.722,209.909,94.137,210.379,94.571,210.844z"/>
			<path style="fill:#EF8829;" d="M91.489,207.429c-0.444-0.509-0.871-1.023-1.305-1.535
				C90.618,206.406,91.045,206.92,91.489,207.429z"/>
			<path style="fill:#EF8829;" d="M88.572,203.969c-0.44-0.539-0.864-1.083-1.292-1.626
				C87.708,202.886,88.133,203.429,88.572,203.969z"/>
			<path style="fill:#EF8829;" d="M85.822,200.466c-0.426-0.563-0.84-1.128-1.254-1.694
				C84.981,199.338,85.396,199.904,85.822,200.466z"/>
			<path style="fill:#EF8829;" d="M111.33,217.798c-1.296,0.075-2.644,0.086-4.009,0.073
				C108.687,217.885,110.033,217.874,111.33,217.798z"/>
			<path style="fill:#EF8829;" d="M85.069,167.565c-0.494-0.191-0.988-0.393-1.482-0.595
				C84.082,167.172,84.575,167.374,85.069,167.565z"/>
			<path style="fill:#EF8829;" d="M79.595,165.209c-0.544-0.259-1.085-0.536-1.628-0.811
				C78.51,164.673,79.051,164.949,79.595,165.209z"/>
			<path style="fill:#EF8829;" d="M82.33,166.447c-0.509-0.219-1.018-0.452-1.526-0.683C81.312,165.995,81.82,166.227,82.33,166.447
				z"/>
			<path style="fill:#EF8829;" d="M135.898,172.841c0.272,1.094,0.689,2.104,0.689,2.104c-0.148,0.037-32.731,9.014-59.872-4.267
				c5.844,16.864,16.358,32.53,31.549,46.866c1.066,0.114,2.105,0.188,3.133,0.248c21.149-1.258,33.011-13.856,37.751-20.356
				C143.579,189.981,138.661,181.895,135.898,172.841z"/>
			<path style="fill:#EF8829;" d="M74.476,162.523c0.797,0.458,1.596,0.902,2.4,1.325C76.073,163.424,75.273,162.98,74.476,162.523z
				"/>
			<path style="fill:#EF8829;" d="M96.722,213.081c0.368,0.378,0.723,0.759,1.098,1.134C97.445,213.84,97.09,213.459,96.722,213.081
				z"/>
			<path style="fill:#EF8829;" d="M69.032,168.815c0.254,0.783,0.535,1.56,0.809,2.337
				C69.567,170.374,69.286,169.598,69.032,168.815z"/>
			<path style="fill:#EF8829;" d="M83.235,196.919c-0.409-0.583-0.809-1.168-1.205-1.755
				C82.427,195.75,82.826,196.336,83.235,196.919z"/>
			<path style="fill:#EF8829;" d="M70.385,172.697c0.271,0.728,0.563,1.45,0.851,2.173
				C70.948,174.147,70.655,173.425,70.385,172.697z"/>
			<path style="fill:#EF8829;" d="M72.116,161.096c-0.134-0.084-0.269-0.161-0.403-0.246c0.001,0.001,0.002,0.001,0.002,0.001
				C71.848,160.936,71.983,161.013,72.116,161.096z"/>
			<path style="fill:#EF8829;" d="M67.801,161.143c0-0.001,0-0.002,0-0.002c0-1.447-1.117-2.9-1.394-4.364
				c0.703,3.711,1.866,7.365,2.991,10.97C68.716,165.564,67.801,163.365,67.801,161.143z"/>
			<path style="fill:#EF8829;" d="M87.809,168.571c-0.485-0.169-0.97-0.344-1.455-0.522
				C86.839,168.227,87.324,168.402,87.809,168.571z"/>
			<path style="fill:#EF8829;" d="M78.567,189.709c-0.372-0.624-0.738-1.249-1.096-1.876
				C77.829,188.461,78.196,189.086,78.567,189.709z"/>
			<path style="fill:#EF8829;" d="M80.818,193.334c-0.391-0.604-0.776-1.21-1.153-1.818
				C80.043,192.124,80.427,192.73,80.818,193.334z"/>
			<path style="fill:#EF8829;" d="M72.814,178.616c-0.307-0.69-0.618-1.38-0.909-2.075
				C72.196,177.236,72.506,177.925,72.814,178.616z"/>
			<path style="fill:#EF8829;" d="M74.562,182.34c-0.328-0.663-0.657-1.327-0.969-1.995
				C73.905,181.014,74.234,181.677,74.562,182.34z"/>
			<path style="fill:#EF8829;" d="M76.48,186.042c-0.349-0.642-0.696-1.285-1.031-1.93C75.784,184.757,76.131,185.4,76.48,186.042z"
				/>
			<path style="fill:#EF8829;" d="M107.524,173.048c-0.472-0.057-0.951-0.122-1.429-0.186
				C106.573,172.926,107.052,172.991,107.524,173.048z"/>
			<path style="fill:#EF8829;" d="M90.551,169.472c-0.482-0.15-0.965-0.303-1.449-0.463
				C89.585,169.168,90.068,169.321,90.551,169.472z"/>
			<path style="fill:#EF8829;" d="M127.441,173.643c-0.346,0.02-0.711,0.037-1.074,0.055
				C126.73,173.68,127.094,173.663,127.441,173.643z"/>
			<path style="fill:#EF8829;" d="M130.426,173.431c-0.249,0.021-0.511,0.042-0.774,0.062
				C129.916,173.472,130.176,173.452,130.426,173.431z"/>
			<path style="fill:#EF8829;" d="M125.763,173.727c-0.572,0.024-1.164,0.046-1.774,0.062
				C124.599,173.773,125.19,173.752,125.763,173.727z"/>
			<path style="fill:#EF8829;" d="M123.448,173.8c-0.447,0.011-0.896,0.02-1.361,0.025
				C122.553,173.82,123.001,173.811,123.448,173.8z"/>
			<path style="fill:#EF8829;" d="M128.993,173.543c-0.278,0.019-0.571,0.038-0.862,0.056
				C128.423,173.581,128.714,173.562,128.993,173.543z"/>
			<path style="fill:#EF8829;" d="M131.726,173.313c-0.23,0.022-0.473,0.044-0.719,0.066
				C131.255,173.358,131.495,173.335,131.726,173.313z"/>
			<path style="fill:#EF8829;" d="M135.491,172.889c-0.15,0.018-0.335,0.042-0.535,0.066
				C135.161,172.93,135.339,172.908,135.491,172.889z"/>
			<path style="fill:#EF8829;" d="M134.748,172.981c-0.164,0.02-0.344,0.042-0.536,0.065
				C134.408,173.023,134.581,173.002,134.748,172.981z"/>
			<path style="fill:#EF8829;" d="M132.857,173.199c-0.201,0.022-0.411,0.043-0.628,0.065
				C132.448,173.242,132.656,173.22,132.857,173.199z"/>
			<path style="fill:#EF8829;" d="M133.847,173.089c-0.172,0.02-0.351,0.04-0.54,0.061
				C133.498,173.128,133.673,173.109,133.847,173.089z"/>
			<path style="fill:#EF8829;" d="M120.076,174.238c0.408,0,0.804,0,1.201,0C120.88,174.238,120.484,174.238,120.076,174.238z"/>
			<path style="fill:#EF8829;" d="M98.819,171.612c-0.531-0.112-1.062-0.222-1.597-0.344
				C97.757,171.39,98.288,171.501,98.819,171.612z"/>
			<path style="fill:#EF8829;" d="M102.429,172.309c-0.845-0.145-1.698-0.303-2.556-0.474
				C100.731,172.006,101.584,172.164,102.429,172.309z"/>
			<path style="fill:#EF8829;" d="M104.999,172.714c-0.574-0.083-1.154-0.178-1.736-0.272
				C103.845,172.536,104.426,172.631,104.999,172.714z"/>
			<path style="fill:#EF8829;" d="M93.287,170.272c-0.483-0.133-0.967-0.268-1.452-0.41
				C92.32,170.004,92.803,170.138,93.287,170.272z"/>
			<path style="fill:#EF8829;" d="M96.037,170.983c-0.498-0.121-0.996-0.241-1.497-0.371
				C95.04,170.742,95.538,170.862,96.037,170.983z"/>
			<path style="fill:#EF8829;" d="M116.972,173.765c-0.395-0.013-0.793-0.028-1.196-0.046
				C116.179,173.738,116.576,173.752,116.972,173.765z"/>
			<path style="fill:#EF8829;" d="M109.986,173.314c-0.442-0.043-0.89-0.092-1.338-0.141
				C109.096,173.222,109.544,173.272,109.986,173.314z"/>
			<path style="fill:#EF8829;" d="M119.166,173.817c-0.395-0.006-0.792-0.011-1.197-0.022
				C118.374,173.806,118.77,173.812,119.166,173.817z"/>
			<path style="fill:#EF8829;" d="M114.718,173.668c-0.411-0.022-0.827-0.047-1.245-0.074
				C113.892,173.621,114.307,173.646,114.718,173.668z"/>
			<path style="fill:#EF8829;" d="M111.106,173.415c0.433,0.037,0.863,0.073,1.289,0.105
				C111.969,173.488,111.538,173.452,111.106,173.415z"/>
		</g>
		<g>
			<path style="fill:#EF8829;" d="M213.241,310.9c-0.162,0.283-0.36,0.542-0.581,0.782
				C212.884,311.445,213.079,311.184,213.241,310.9z"/>
			<path style="fill:#EF8829;" d="M211.769,312.416c0.299-0.177,0.559-0.396,0.799-0.634
				C212.33,312.023,212.068,312.24,211.769,312.416z"/>
			<path style="fill:#EF8829;" d="M241.913,269.253l-54.193-15.204l5.96,1.672c-1.116,1.493-2.56,3.183-4.375,4.837l23.938,50.337
				c0.18-0.317,0.334-0.649,0.427-1.012c0.274-1.07,0.116-2.184-0.446-3.134c-2.114-3.573-0.931-8.184,2.642-10.297
				c2.811-1.664,6.263-1.278,8.637,0.701c0.025,0.022,3.183,2.565,6.07-1.173c1.533-1.984,1.721-5.21,0.169-6.537
				c-0.047-0.04-0.09-0.085-0.134-0.128c-2.293-2.063-3.17-5.413-1.935-8.431c1.574-3.842,5.963-5.68,9.806-4.108
				c2.112,0.864,4.534-0.149,5.399-2.261C244.7,272.505,243.82,270.214,241.913,269.253z"/>
		</g>
		<g>
			<path style="fill:#FFFFFF;" d="M135.603,142.277c0.524-2.325,1.178-4.904,1.998-7.742c-3.322-2.215-16.837-9.943-27.747-26.173
				C116.803,125.132,127.585,135.922,135.603,142.277z"/>
			<g>
				<path style="fill:#EF8829;" d="M137.601,134.535c-5.082-3.388-33.997-19.695-40.968-59.597c0.046,0.266,0.078,0.548,0.126,0.812
					c-19.638,27.383-23.631,54.227-24.465,66.924c21.529,16.667,48.912,16.443,61.26,15.265
					C133.553,157.73,133.164,149.88,137.601,134.535z"/>
				<path style="fill:#EF8829;" d="M95.125,58.78c0.009,0.556,0.038,1.093,0.055,1.641C95.163,59.873,95.134,59.336,95.125,58.78z"
					/>
				<path style="fill:#EF8829;" d="M70.592,141.271c-0.768-0.635-1.544-1.247-2.295-1.928
					C69.047,140.026,69.825,140.634,70.592,141.271z"/>
				<path style="fill:#EF8829;" d="M95.494,66.012c-0.048-0.575-0.098-1.147-0.136-1.73C95.397,64.865,95.446,65.438,95.494,66.012z
					"/>
				<path style="fill:#EF8829;" d="M96.05,71.184c-0.069-0.509-0.131-1.024-0.192-1.539C95.919,70.161,95.981,70.675,96.05,71.184z"
					/>
			</g>
		</g>
		<g>
			<path style="fill:#EF8829;" d="M110.885,68.383c0.101,0.637,0.229,1.256,0.346,1.882
				C111.114,69.639,110.987,69.02,110.885,68.383z"/>
			<path style="fill:#EF8829;" d="M113.011,77.604c-0.189-0.629-0.384-1.254-0.557-1.897
				C112.627,76.35,112.822,76.975,113.011,77.604z"/>
			<path style="fill:#EF8829;" d="M111.582,72.111c0.137,0.638,0.298,1.259,0.451,1.886C111.88,73.371,111.719,72.75,111.582,72.111
				z"/>
			<path style="fill:#EF8829;" d="M110.083,60.55c0.029,0.631,0.089,1.245,0.135,1.867C110.173,61.795,110.112,61.181,110.083,60.55
				z"/>
			<path style="fill:#EF8829;" d="M110.381,64.531c0.065,0.634,0.159,1.25,0.24,1.874C110.54,65.781,110.446,65.165,110.381,64.531z
				"/>
			<path style="fill:#EF8829;" d="M177.196,17.447c0.026-0.044,0.047-0.088,0.073-0.133c0,0,0,0,0,0
				C177.243,17.359,177.222,17.403,177.196,17.447z"/>
			<path style="fill:#EF8829;" d="M110.01,56.447c-0.007,0.627,0.02,1.237,0.029,1.856C110.029,57.684,110.003,57.074,110.01,56.447
				z"/>
			<path style="fill:#EF8829;" d="M111.098,44.62c0.068-0.406,0.114-0.804,0.189-1.214C111.212,43.817,111.167,44.213,111.098,44.62
				z"/>
			<path style="fill:#EF8829;" d="M110.102,54c0.026-0.593,0.032-1.176,0.073-1.777C110.134,52.823,110.128,53.407,110.102,54z"/>
			<path style="fill:#EF8829;" d="M110.438,49.486c0.056-0.539,0.09-1.067,0.158-1.611
				C110.528,48.419,110.494,48.947,110.438,49.486z"/>
			<path style="fill:#EF8829;" d="M174.479,22.538c0.199-0.405,0.378-0.811,0.586-1.216
				C174.857,21.727,174.678,22.132,174.479,22.538z"/>
			<path style="fill:#EF8829;" d="M170.174,33.375c-0.052,0.169-0.118,0.34-0.168,0.509c-20.013,3.834-36.766,10.189-50.473,19.224
				c-4.156,17.11-2.159,31.819,2.463,43.907c9.255,14.454,20.895,22.931,23.449,24.666c8.147-9.338,20.308-15.275,35.967-17.35
				C178.794,99.533,159.531,68.166,170.174,33.375z"/>
			<path style="fill:#EF8829;" d="M171.048,30.733c0.158-0.452,0.308-0.904,0.476-1.358
				C171.356,29.828,171.206,30.28,171.048,30.733z"/>
			<path style="fill:#EF8829;" d="M172.596,26.692c0.187-0.448,0.359-0.895,0.557-1.343
				C172.955,25.796,172.782,26.244,172.596,26.692z"/>
			<path style="fill:#EF8829;" d="M121.543,96.292c-0.35-0.559-0.7-1.119-1.042-1.696C120.843,95.173,121.193,95.733,121.543,96.292
				z"/>
			<path style="fill:#EF8829;" d="M114.138,81.053c-0.221-0.622-0.446-1.24-0.652-1.874
				C113.692,79.813,113.917,80.431,114.138,81.053z"/>
			<path style="fill:#EF8829;" d="M119.885,93.522c-0.331-0.578-0.662-1.155-0.983-1.749
				C119.222,92.367,119.553,92.944,119.885,93.522z"/>
			<path style="fill:#EF8829;" d="M115.408,84.377c-0.252-0.613-0.507-1.224-0.745-1.852
				C114.902,83.153,115.156,83.763,115.408,84.377z"/>
			<path style="fill:#EF8829;" d="M116.803,87.568c-0.282-0.607-0.566-1.211-0.836-1.833
				C116.237,86.357,116.52,86.962,116.803,87.568z"/>
			<path style="fill:#EF8829;" d="M118.3,90.615c-0.308-0.594-0.617-1.186-0.914-1.796C117.683,89.429,117.992,90.021,118.3,90.615z
				"/>
		</g>
		<g>
			<path style="fill:#EF8829;" d="M193.473,94.932c-0.239-0.467-0.476-0.918-0.717-1.411
				C192.997,94.015,193.233,94.463,193.473,94.932z"/>
			<path style="fill:#EF8829;" d="M195.045,97.88c-0.246-0.439-0.488-0.867-0.74-1.337C194.558,97.015,194.798,97.439,195.045,97.88
				z"/>
			<path style="fill:#EF8829;" d="M197.866,102.58c-0.238-0.366-0.481-0.744-0.742-1.161
				C197.388,101.842,197.626,102.21,197.866,102.58z"/>
			<path style="fill:#EF8829;" d="M196.532,100.444c-0.247-0.408-0.493-0.814-0.753-1.262
				C196.041,99.634,196.283,100.033,196.532,100.444z"/>
			<path style="fill:#EF8829;" d="M188.674,83.739c-0.163-0.464-0.336-0.902-0.495-1.378
				C188.338,82.837,188.511,83.275,188.674,83.739z"/>
			<path style="fill:#EF8829;" d="M191.856,91.594c-0.224-0.486-0.448-0.95-0.671-1.457
				C191.408,90.644,191.631,91.108,191.856,91.594z"/>
			<path style="fill:#EF8829;" d="M190.247,87.884c-0.202-0.494-0.408-0.965-0.606-1.476C189.84,86.92,190.045,87.39,190.247,87.884
				z"/>
			<path style="fill:#EF8829;" d="M261.777,39.43c0.389,1.237,0.724,2.536,1.002,3.881c-14.079-12.635-38.018-13.421-38.277-13.421
				c0,0-15.261,0.194-21.883,0.585c-11.193,20.041-13.895,40.979-7.997,62.296c1.031,3.726,2.254,7.16,3.536,10.258
				c0.112,0.168,0.242,0.376,0.347,0.532c11.376,0.383,19.829,1.862,20.222,1.951c3.338,0.756,6.538,0.725,9.504,0.725h0.004
				c31.763,0,35.055-47.177,35.086-47.402C264.261,51.992,263.605,45.235,261.777,39.43z"/>
			<path style="fill:#EF8829;" d="M260.43,35.865c-0.207-0.458-0.425-0.895-0.649-1.324C260.004,34.97,260.223,35.407,260.43,35.865
				z"/>
			<path style="fill:#EF8829;" d="M259.646,34.273c-0.211-0.391-0.433-0.761-0.657-1.125
				C259.214,33.512,259.436,33.882,259.646,34.273z"/>
			<path style="fill:#EF8829;" d="M261.14,37.584c-0.2-0.528-0.412-1.039-0.633-1.537C260.727,36.546,260.94,37.056,261.14,37.584z"
				/>
			<path style="fill:#EF8829;" d="M258.796,32.825c-0.221-0.345-0.454-0.665-0.688-0.981
				C258.343,32.16,258.575,32.48,258.796,32.825z"/>
			<path style="fill:#EF8829;" d="M257.885,31.529c-0.313-0.403-0.635-0.783-0.969-1.133
				C257.25,30.746,257.572,31.125,257.885,31.529z"/>
			<path style="fill:#EF8829;" d="M261.772,39.412c-0.188-0.595-0.387-1.174-0.6-1.739
				C261.384,38.238,261.585,38.817,261.772,39.412z"/>
		</g>
	</g>
	<path style="fill:#3F2D20;" d="M268.324,20.603C251.221,0.681,220.213,0.106,216.719,0.106c0,0-70.569-3.623-117.721,31.557
		c-26.546,19.806-43.08,48.395-48.634,88.894c-5.73,41.777,9.471,80.179,43.956,111.052c25.593,22.913,52.565,33.457,53.659,33.949
		c10.072,4.537,18.785,2.547,20.899,2.059c0,0,24.183,50.794,24.284,50.997c6.889,13.72,21.567,9.475,26.263,6.742
		c8.286-4.823,8.91-12.24,8.964-12.492c5.026-0.455,9.98-2.865,13.611-7.11c3.647-4.265,5.222-9.696,4.83-14.887
		c4.801-1.818,8.867-5.542,10.962-10.655c4.005-9.781-0.693-20.999-10.475-25.006c-0.267-0.109-54.865-15.445-54.865-15.445
		c0.453-13.576-10.088-25.938-20.361-37.98c-11.56-13.551-23.513-27.564-23.513-44.468c0-25.735,15.47-38.785,45.98-38.785
		c11.548,0,29.595,3.572,33.674,3.572c0.002,0,0.004,0,0.007,0c19.287-0.003,34.115-10.96,42.88-31.689
		c5.691-13.459,6.927-26.772,7.111-29.194C280.68,44.779,277.348,31.115,268.324,20.603z M228.231,107.066
		c-2.966,0-6.167-0.384-9.504-1.139c-0.392-0.089-8.846-1.981-20.222-2.365c-2.878-4.279-8.285-13.37-11.651-25.541
		c-5.898-21.317-3.196-42.255,7.997-62.296c6.621-0.392,21.883-0.585,21.883-0.585c0.271,0,26.487,0.85,40.183,15.255
		c5.206,5.476,7.948,17.616,6.404,28.855c-0.03,0.225-3.323,47.811-35.086,47.816H228.231z M187.72,254.048l54.193,15.204
		c1.908,0.962,2.787,3.252,1.965,5.262c-0.865,2.111-3.287,3.125-5.399,2.261c-3.843-1.572-8.232,0.266-9.806,4.108
		c-1.235,3.019-0.358,6.369,1.935,8.431c0.044,0.043,0.087,0.088,0.134,0.128c1.552,1.327,1.365,4.553-0.168,6.537
		c-2.888,3.738-6.045,1.194-6.071,1.172c-2.375-1.979-5.826-2.365-8.637-0.701c-3.574,2.113-4.757,6.723-2.643,10.297
		c0.562,0.951,0.72,2.064,0.446,3.134c-0.275,1.071-0.95,1.97-1.902,2.533c-0.95,0.563-2.064,0.721-3.135,0.446
		c-0.987-0.254-1.829-0.848-2.394-1.685l-24.072-50.619C184.702,258.246,186.529,255.858,187.72,254.048z M158.86,209.436
		c0.6,0.705,24.15,23.627,17.1,34.987c-0.054,0.086-0.058,0.112-0.101,0.204c-0.176,0.356-4.413,8.731-13.864,8.731
		c-2.608,0-18.668-0.468-42.946-21.212C139.259,229.047,152.038,217.697,158.86,209.436z M101.236,217.544
		c-19.289-18.204-31.083-38.541-35.289-60.766c28.551,22.432,66.609,16.419,69.951,16.063c2.763,9.054,7.68,17.141,13.251,24.595
		C143.697,204.913,128.837,220.477,101.236,217.544z M137.601,134.535c-4.437,15.346-4.048,23.195-4.046,23.405
		c-13.951,1.33-47.115,1.488-69.32-22.618c0.1-4.184-0.975-43.994,30.93-82.224C93.323,109.104,131.676,130.584,137.601,134.535z
		 M145.445,121.681c-5.029-3.415-45.307-32.926-33.177-82.868c16.904-11.142,38.435-18.21,65.002-21.497
		c-24.024,40.678,1.126,81.486,4.143,87.015C165.753,106.406,153.591,112.343,145.445,121.681z"/>
</g>
</svg>