<?xml version="1.0" encoding="iso-8859-1"?>
<!-- Uploaded to: SVG Repo, www.svgrepo.com, Generator: SVG Repo Mixer Tools -->
<svg version="1.1" id="Layer_1" xmlns="http://www.w3.org/2000/svg" xmlns:xlink="http://www.w3.org/1999/xlink" 
	 viewBox="0 0 512 512" xml:space="preserve">
<rect x="87.489" y="27.55" style="fill:#FFCF70;" width="337.017" height="473.435"/>
<rect x="131.569" y="71.631" style="fill:#ECF0F1;" width="248.856" height="385.274"/>
<rect x="176.101" y="11.02" style="fill:#0BBBDA;" width="159.792" height="60.611"/>
<g>
	<polygon style="fill:#FFBAA8;" points="300.781,109.731 313.736,133.879 340.706,138.738 321.742,158.521 325.456,185.672 
		300.781,173.751 276.106,185.672 279.819,158.521 260.856,138.738 287.827,133.879 	"/>
	<polygon style="fill:#FFBAA8;" points="300.781,224.243 313.736,248.391 340.706,253.25 321.742,273.033 325.456,300.185 
		300.781,288.262 276.106,300.185 279.819,273.033 260.856,253.25 287.827,248.391 	"/>
	<polygon style="fill:#FFBAA8;" points="300.781,338.755 313.736,362.903 340.706,367.762 321.742,387.544 325.456,414.696 
		300.781,402.774 276.106,414.696 279.819,387.544 260.856,367.762 287.827,362.903 	"/>
</g>
<g>
	<path style="fill:#231F20;" d="M268.18,162.303l-2.993,21.876c-0.55,4.023,1.157,8.023,4.441,10.41
		c1.918,1.393,4.191,2.105,6.479,2.105c1.631,0,3.272-0.363,4.794-1.098l19.88-9.605l19.88,9.605
		c3.656,1.767,7.985,1.38,11.272-1.007c3.284-2.387,4.991-6.386,4.441-10.408l-2.992-21.876l15.278-15.939
		c2.81-2.931,3.781-7.17,2.526-11.031c-1.255-3.861-4.531-6.72-8.527-7.44l-21.729-3.914l-10.439-19.457
		c-1.919-3.578-5.65-5.81-9.711-5.81c-4.061,0-7.791,2.233-9.711,5.81l-10.439,19.457l-21.729,3.914
		c-3.995,0.72-7.272,3.579-8.526,7.44c-1.255,3.861-0.284,8.101,2.526,11.031L268.18,162.303z M289.779,144.725
		c3.31-0.597,6.168-2.672,7.757-5.636l3.244-6.047l3.244,6.047c1.589,2.963,4.447,5.039,7.757,5.636l6.753,1.217l-4.749,4.954
		c-2.327,2.429-3.42,5.787-2.963,9.119l0.93,6.798l-6.178-2.985c-1.514-0.732-3.154-1.098-4.795-1.098
		c-1.641,0-3.281,0.366-4.795,1.098l-6.178,2.984l0.931-6.797c0.455-3.332-0.636-6.691-2.963-9.119l-4.749-4.955L289.779,144.725z"
		/>
	<path style="fill:#231F20;" d="M171.294,136.681h51.244c6.085,0,11.02-4.934,11.02-11.02c0-6.086-4.935-11.02-11.02-11.02h-51.244
		c-6.085,0-11.02,4.934-11.02,11.02C160.274,131.748,165.209,136.681,171.294,136.681z"/>
	<path style="fill:#231F20;" d="M171.294,180.762h51.244c6.085,0,11.02-4.934,11.02-11.02c0-6.086-4.935-11.02-11.02-11.02h-51.244
		c-6.085,0-11.02,4.934-11.02,11.02C160.274,175.828,165.209,180.762,171.294,180.762z"/>
	<path style="fill:#231F20;" d="M268.18,276.814l-2.993,21.876c-0.55,4.022,1.157,8.023,4.441,10.409
		c3.285,2.388,7.615,2.774,11.272,1.007l19.88-9.605l19.88,9.605c1.523,0.735,3.161,1.098,4.794,1.098
		c2.288,0,4.562-0.712,6.479-2.105c3.284-2.387,4.991-6.386,4.441-10.409l-2.992-21.876l15.278-15.939
		c2.81-2.931,3.781-7.17,2.526-11.031c-1.255-3.861-4.531-6.72-8.527-7.44l-21.729-3.914l-10.439-19.457
		c-1.919-3.578-5.65-5.81-9.711-5.81c-4.061,0-7.791,2.233-9.711,5.81l-10.439,19.457l-21.729,3.914
		c-3.995,0.72-7.272,3.579-8.526,7.44c-1.255,3.861-0.284,8.101,2.526,11.031L268.18,276.814z M289.779,259.237
		c3.31-0.597,6.168-2.672,7.757-5.636l3.244-6.047l3.244,6.047c1.589,2.963,4.447,5.039,7.757,5.636l6.753,1.217l-4.749,4.954
		c-2.327,2.429-3.42,5.787-2.963,9.119l0.93,6.799l-6.178-2.985c-1.514-0.732-3.154-1.098-4.795-1.098
		c-1.641,0-3.281,0.366-4.795,1.098l-6.178,2.984l0.931-6.798c0.455-3.332-0.636-6.691-2.963-9.119l-4.749-4.955L289.779,259.237z"
		/>
	<path style="fill:#231F20;" d="M171.294,251.194h51.244c6.085,0,11.02-4.934,11.02-11.02c0-6.086-4.935-11.02-11.02-11.02h-51.244
		c-6.085,0-11.02,4.934-11.02,11.02C160.274,246.26,165.209,251.194,171.294,251.194z"/>
	<path style="fill:#231F20;" d="M171.294,295.274h51.244c6.085,0,11.02-4.934,11.02-11.02s-4.935-11.02-11.02-11.02h-51.244
		c-6.085,0-11.02,4.934-11.02,11.02S165.209,295.274,171.294,295.274z"/>
	<path style="fill:#231F20;" d="M268.18,391.328l-2.993,21.875c-0.55,4.022,1.157,8.023,4.441,10.409
		c1.918,1.394,4.191,2.105,6.479,2.105c1.631,0,3.272-0.363,4.794-1.098l19.88-9.605l19.88,9.605
		c3.656,1.767,7.987,1.379,11.272-1.007c3.285-2.386,4.991-6.386,4.441-10.409l-2.992-21.876l15.278-15.939
		c2.81-2.931,3.781-7.17,2.526-11.031c-1.255-3.861-4.53-6.721-8.526-7.44l-21.731-3.915l-10.439-19.457
		c-1.919-3.578-5.65-5.81-9.711-5.81c-4.061,0-7.791,2.233-9.711,5.81l-10.439,19.457l-21.729,3.915
		c-3.996,0.72-7.272,3.578-8.526,7.44c-1.255,3.861-0.284,8.1,2.526,11.031L268.18,391.328z M289.78,373.748
		c3.31-0.596,6.167-2.671,7.756-5.636l3.244-6.047l3.244,6.047c1.589,2.963,4.445,5.039,7.756,5.636l6.754,1.217l-4.749,4.954
		c-2.327,2.428-3.42,5.786-2.963,9.119l0.93,6.799l-6.178-2.985c-1.514-0.732-3.154-1.098-4.795-1.098
		c-1.641,0-3.281,0.366-4.795,1.098l-6.178,2.985l0.931-6.798c0.455-3.332-0.636-6.691-2.963-9.119l-4.749-4.954L289.78,373.748z"/>
	<path style="fill:#231F20;" d="M171.294,365.706h51.244c6.085,0,11.02-4.934,11.02-11.02s-4.935-11.02-11.02-11.02h-51.244
		c-6.085,0-11.02,4.934-11.02,11.02S165.209,365.706,171.294,365.706z"/>
	<path style="fill:#231F20;" d="M171.294,409.786h51.244c6.085,0,11.02-4.934,11.02-11.02c0-6.086-4.935-11.02-11.02-11.02h-51.244
		c-6.085,0-11.02,4.934-11.02,11.02C160.274,404.853,165.209,409.786,171.294,409.786z"/>
	<path style="fill:#231F20;" d="M424.509,16.53h-77.593v-5.51c0-6.086-4.935-11.02-11.02-11.02H176.105
		c-6.085,0-11.02,4.934-11.02,11.02v5.51H87.491c-6.085,0-11.02,4.934-11.02,11.02v473.43c0,6.086,4.935,11.02,11.02,11.02h337.018
		c6.085,0,11.02-4.934,11.02-11.02V27.55C435.529,21.464,430.595,16.53,424.509,16.53z M369.409,82.651v363.228H142.591V82.651
		H369.409z M187.125,22.04h137.751v38.57H187.125L187.125,22.04L187.125,22.04z M413.489,489.96H98.511V38.57h66.574v22.04h-33.513
		c-6.085,0-11.02,4.934-11.02,11.02v385.269c0,6.086,4.935,11.02,11.02,11.02h248.857c6.085,0,11.02-4.934,11.02-11.02V71.631
		c0-6.086-4.935-11.02-11.02-11.02h-33.512V38.57h66.573V489.96z"/>
</g>
</svg>