<svg width="20" height="20" viewBox="0 0 20 20" fill="none" xmlns="http://www.w3.org/2000/svg">
<path d="M14.5173 0H5.4827C2.45953 0 0 2.45953 0 5.48273V14.5173C0 17.5405 2.45953 20 5.4827 20H14.5173C17.5405 20 20 17.5405 20 14.5173V5.48273C20 2.45953 17.5405 0 14.5173 0ZM18.8189 14.5173C18.8189 16.8892 16.8893 18.8189 14.5173 18.8189H5.4827C3.11078 18.8189 1.18109 16.8893 1.18109 14.5173V5.48273C1.18109 3.11078 3.11078 1.18109 5.4827 1.18109H14.5173C16.8893 1.18109 18.8189 3.11078 18.8189 5.48273V14.5173Z" fill="white"/>
<path d="M10 4.51445C6.97523 4.51445 4.51441 6.97527 4.51441 10C4.51441 13.0248 6.97519 15.4856 10 15.4856C13.0248 15.4856 15.4856 13.0248 15.4856 10C15.4856 6.97523 13.0248 4.51445 10 4.51445ZM10 14.3046C7.62648 14.3046 5.69547 12.3735 5.69547 10C5.69547 7.62648 7.62648 5.69547 10 5.69547C12.3736 5.69547 14.3046 7.62652 14.3046 10C14.3046 12.3736 12.3736 14.3046 10 14.3046Z" fill="white"/>
<path d="M15.8137 2.51965C14.8947 2.51965 14.1471 3.26735 14.1471 4.18633C14.1471 5.10532 14.8947 5.85297 15.8137 5.85297C16.7327 5.85297 17.4804 5.10528 17.4804 4.18629C17.4804 3.26731 16.7327 2.51965 15.8137 2.51965ZM15.8137 4.67184C15.546 4.67184 15.3282 4.45403 15.3282 4.18629C15.3282 3.91856 15.546 3.70075 15.8137 3.70075C16.0814 3.70075 16.2993 3.9186 16.2993 4.18629C16.2993 4.45399 16.0814 4.67184 15.8137 4.67184Z" fill="white"/>
</svg>
