<svg width="20" height="18" viewBox="0 0 20 18" fill="none" xmlns="http://www.w3.org/2000/svg">
<path d="M19.6081 0.63867C19.2864 0.343866 18.8291 0.245623 18.4146 0.382225L0.829101 6.17914C0.349843 6.33711 0.0248429 6.76492 0.00113193 7.26894C-0.0225399 7.77301 0.260859 8.22945 0.723124 8.43176L5.07215 10.3346C5.09336 10.433 6.34184 16.2235 6.3843 16.4203C6.43879 16.6731 6.56711 16.8983 6.83894 16.9676C7.11391 17.0376 7.30816 16.8873 7.51332 16.7338C7.6275 16.6483 10.7407 14.3171 10.7407 14.3171L14.5137 17.4046C14.7334 17.5845 15.002 17.6784 15.2759 17.6784C15.4063 17.6783 15.5379 17.6571 15.666 17.6136C16.0631 17.479 16.3575 17.1549 16.4534 16.7467L19.9677 1.80523C20.0676 1.38043 19.9299 0.933475 19.6081 0.63867ZM7.79445 11.4249C7.7923 11.43 7.7902 11.4357 7.7882 11.4426L7.0607 13.9843L6.24883 10.2189L11.8315 7.11715L7.92836 11.1983C7.86687 11.2626 7.82164 11.3404 7.79445 11.4249ZM8.02535 14.8829L8.35578 13.7284L8.67184 12.6242L9.8043 13.5509L8.02535 14.8829ZM18.8243 1.53625L15.31 16.4777C15.3083 16.4852 15.3059 16.4954 15.2888 16.5012C15.2717 16.507 15.2634 16.5004 15.2576 16.4955L11.129 13.1171C11.1289 13.117 11.1288 13.1169 11.1287 13.1168L9.21586 11.5515L15.3613 5.12582C15.562 4.91594 15.5792 4.5909 15.4017 4.36101C15.2242 4.13109 14.9054 4.06543 14.6516 4.20652L5.55191 9.26234L1.19398 7.35558C1.1807 7.3498 1.1734 7.34656 1.17445 7.3241C1.17551 7.30172 1.18309 7.29918 1.19684 7.29465L18.7823 1.49777C18.7908 1.495 18.8004 1.4918 18.8146 1.50469C18.8287 1.51765 18.8264 1.5275 18.8243 1.53625Z" fill="white"/>
</svg>
