<svg width="20" height="18" viewBox="0 0 20 18" fill="none" xmlns="http://www.w3.org/2000/svg">
<path d="M19.9117 3.27885C19.7934 3.08651 19.577 2.97749 19.3518 2.99702L18.3545 3.08389L19.3078 1.16229C19.4213 0.933425 19.3765 0.657682 19.1963 0.47655C19.0161 0.295417 18.7406 0.249245 18.5112 0.361589L15.9883 1.59717C14.4295 0.774284 12.4822 1.01854 11.1422 2.23921C10.0238 3.25796 9.43595 4.82464 9.54556 6.38698C6.62255 6.09401 4.14833 4.42093 2.68529 1.71757C2.58822 1.53823 2.40623 1.42092 2.20283 1.40651C1.99904 1.39233 1.80271 1.48264 1.68138 1.64659C0.77396 2.87245 0.710288 4.55323 1.42166 5.936C1.22556 5.88647 1.01689 5.81944 0.785483 5.74214C0.587241 5.67585 0.368686 5.71831 0.209585 5.85393C0.0504832 5.98956 -0.0260011 6.19858 0.00802229 6.40487C0.289507 8.11143 1.28466 9.423 2.85669 10.1993C2.65201 10.2706 2.44314 10.3285 2.23076 10.3728C2.01974 10.4167 1.84888 10.5711 1.78384 10.7766C1.7188 10.9821 1.76966 11.2067 1.91693 11.3641C3.049 12.5742 4.68431 13.1698 5.84587 13.4555C4.52517 14.4897 3.09951 14.6628 1.02787 14.5917C0.788061 14.5844 0.567124 14.7195 0.466304 14.9369C0.365522 15.1543 0.404624 15.4109 0.565679 15.5885C1.42927 16.5404 4.5756 17.6137 7.8831 17.6942C8.01392 17.6974 8.14736 17.6991 8.28361 17.6991C10.6059 17.6991 13.6751 17.2012 15.8781 14.9982C17.5456 13.3308 18.5885 11.4112 18.9779 9.29304C19.2925 7.58221 19.0937 6.21221 18.9982 5.55378C18.9911 5.50538 18.9836 5.45401 18.9776 5.40909L19.9104 3.90557C20.0294 3.71378 20.0299 3.4712 19.9117 3.27885ZM17.8177 5.72503C17.9947 6.94471 18.5331 10.6563 15.0347 14.1548C13.0011 16.1883 10.039 16.5535 7.91208 16.5018C6.0972 16.4576 4.47384 16.1105 3.29728 15.7147C3.77498 15.6561 4.20068 15.5657 4.60251 15.4408C5.71029 15.0965 6.64615 14.4769 7.54763 13.491C7.69791 13.3267 7.74408 13.0924 7.66748 12.8833C7.59087 12.6742 7.40416 12.5253 7.1833 12.497C6.61458 12.4241 4.90576 12.1364 3.56013 11.2082C3.94791 11.0496 4.32189 10.8512 4.679 10.6143C4.8749 10.4843 4.97623 10.2514 4.93763 10.0195C4.89908 9.78761 4.72794 9.59991 4.50052 9.5403C3.39916 9.25155 2.06994 8.60546 1.45701 7.16315C1.84841 7.23175 2.274 7.24835 2.72791 7.14659C2.9383 7.09948 3.10689 6.94245 3.16876 6.73589C3.23068 6.52932 3.1763 6.30542 3.02654 6.15034C2.26388 5.36042 1.97869 4.22206 2.22337 3.24796C3.0247 4.41909 4.0399 5.40471 5.20302 6.13343C6.69095 7.06565 8.42759 7.58085 10.2253 7.62315C10.4082 7.62702 10.5837 7.54718 10.7002 7.40546C10.8166 7.26378 10.8613 7.07639 10.8215 6.89737C10.5122 5.50694 10.9534 4.02467 11.9454 3.12104C12.9743 2.18374 14.495 2.04155 15.6433 2.7755C15.8186 2.88757 16.0399 2.9001 16.2268 2.80854L17.4589 2.2051L16.814 3.50514C16.7182 3.69831 16.7341 3.92815 16.8556 4.10624C16.9771 4.28432 17.1849 4.38319 17.4001 4.36432L18.2689 4.28866L17.8686 4.93378C17.7343 5.1503 17.7622 5.34241 17.8177 5.72503Z" fill="white"/>
</svg>
