<svg width="20" height="20" viewBox="0 0 20 20" fill="none" xmlns="http://www.w3.org/2000/svg">
<path d="M15.0054 12.0405L13.9455 10.9806C13.6563 10.6914 13.2566 10.5465 12.8497 10.5831C12.4424 10.6196 12.0752 10.8332 11.8421 11.1691L11.4729 11.7012C10.9708 11.6118 9.99939 11.3586 9.32041 10.6796C8.64115 10.0003 8.38803 9.02848 8.29873 8.52712L8.83092 8.15786C9.16685 7.92473 9.38049 7.55743 9.41693 7.15016C9.45345 6.7429 9.30853 6.34352 9.01943 6.05446L7.95951 4.99454C7.53357 4.56864 6.89158 4.467 6.36189 4.74145C5.43314 5.22262 4.82306 6.12458 4.64385 7.28114C4.35193 9.16548 5.22306 11.3885 6.91724 13.0827C8.39482 14.5603 10.2745 15.4118 11.9811 15.4118C12.2313 15.4118 12.4779 15.3934 12.7188 15.3561C13.8754 15.177 14.7774 14.5668 15.2585 13.6381C15.2585 13.6381 15.2585 13.6381 15.2585 13.6381C15.5329 13.1084 15.4313 12.4664 15.0054 12.0405ZM14.1801 13.0794C13.7977 13.8174 13.0733 14.0721 12.5329 14.1558C11.0471 14.3859 9.17994 13.6277 7.77607 12.2238C6.37228 10.82 5.61392 8.9529 5.84408 7.46708C5.92775 6.92669 6.18252 6.20231 6.92056 5.81989C6.94056 5.80958 6.96267 5.80454 6.9851 5.80454C7.02635 5.80454 7.06869 5.82153 7.10056 5.85337L8.16053 6.91333C8.20455 6.95743 8.21017 7.00751 8.20709 7.04176C8.204 7.07606 8.18963 7.12434 8.13838 7.15989L7.30115 7.74083C7.12607 7.86231 7.02744 8.06676 7.04138 8.27942C7.04666 8.35973 7.18478 10.2616 8.4615 11.5383C9.73822 12.8151 11.6401 12.9533 11.7204 12.9585C11.9329 12.9722 12.1376 12.8738 12.259 12.6987L12.84 11.8615C12.8755 11.8103 12.9238 11.7959 12.9581 11.7928C12.9924 11.7896 13.0424 11.7953 13.0866 11.8394L14.1465 12.8993C14.1958 12.9485 14.2095 13.0225 14.1801 13.0794Z" fill="white"/>
<path d="M17.0709 2.92906C15.1821 1.0402 12.6708 0 9.99959 0C7.32834 0 4.81709 1.0402 2.92826 2.92902C1.32291 4.53438 0.303771 6.65902 0.0584589 8.9116C-0.173455 11.0411 0.289357 13.2086 1.36311 15.046L0.320998 18.9352C0.264826 19.1447 0.324748 19.3684 0.478225 19.5218C0.631623 19.6752 0.855334 19.7351 1.06479 19.679L4.95393 18.6369C6.48143 19.5296 8.23725 20 10.0096 20C10.369 20 10.7292 19.9807 11.0883 19.9415C13.3409 19.6962 15.4656 18.6771 17.0709 17.0717C18.9598 15.1829 20 12.6716 20 10.0004C20 7.32922 18.9597 4.81789 17.0709 2.92906ZM16.2121 16.2128C13.3085 19.1164 8.84877 19.6323 5.36686 17.4677C5.26967 17.4073 5.15846 17.3761 5.04615 17.3761C4.99358 17.3761 4.94076 17.383 4.88901 17.3968L1.76647 18.2335L2.60319 15.111C2.64662 14.9488 2.62096 14.7758 2.53233 14.6332C0.3676 11.1511 0.883615 6.69141 3.78709 3.78789C7.21272 0.362344 12.7865 0.362344 16.2121 3.78789C19.6376 7.21344 19.6376 12.7873 16.2121 16.2128Z" fill="white"/>
</svg>
