<svg width="126" height="26" viewBox="0 0 126 26" fill="none" xmlns="http://www.w3.org/2000/svg">
<path d="M106.365 3.96959V21.2625H114.882C117.262 21.2625 118.639 20.8865 119.641 20.0094C120.894 18.8816 121.52 16.8766 121.52 12.616C121.52 8.35547 120.894 6.3505 119.641 5.2227C118.639 4.34553 117.262 3.96959 114.882 3.96959H106.365ZM118.013 12.616C118.013 16.3754 117.763 17.2525 117.011 17.7538C116.51 18.1297 115.884 18.255 114.631 18.255H109.872V6.85174H114.631C115.884 6.85174 116.51 6.85174 117.011 7.35299C117.763 7.97954 118.013 8.85671 118.013 12.616ZM125.904 25.085H100.916V0.0849609H125.904V25.085ZM80.501 6.85174V3.96959H95.2806V9.48327H92.1483V6.85174H86.1363V10.987H90.8958V13.7438H86.1363V18.3803H92.2746V15.3729H95.4048V21.2625H80.502V18.3803H82.8808V6.85174H80.501ZM67.0992 16.7513C67.0992 18.631 67.2234 20.0094 67.4739 21.1372H70.8567C70.7305 20.26 70.6062 18.631 70.6062 16.5007C70.48 13.9945 69.7285 13.6185 67.9749 13.2426C69.979 12.8667 70.8567 11.9895 70.8567 8.85671C70.8567 6.3505 70.48 5.34801 69.7285 4.72146C69.2275 4.22022 68.3517 3.96959 66.9729 3.96959H56.4519V21.2625H59.9589V14.4957H64.8447C65.8467 14.4957 66.2214 14.621 66.5982 14.8716C66.975 15.1223 67.0992 15.4982 67.0992 16.7513ZM59.9589 11.7389V6.97705H65.5962C66.3477 6.97705 66.5982 7.10236 66.7224 7.22767C66.9729 7.4783 67.2234 7.85423 67.2234 9.35796C67.2234 10.8617 66.9729 11.3629 66.7224 11.6136C66.5982 11.7389 66.3477 11.8642 65.5962 11.8642L59.9589 11.7389ZM75.8667 25.085H50.8166V0.0849609H75.8036V25.085H75.8667ZM44.3036 18.3803V21.2625H32.4038V18.3803H36.6623V6.85174H32.4038V3.96959H44.3026V6.85174H40.0441V18.3803H44.3036ZM24.2004 3.96959H20.9439L18.5641 17.6285L15.8086 4.97208C15.6834 4.09491 15.3076 3.96959 14.5561 3.96959H12.8026C12.0511 3.96959 11.6754 4.22022 11.5501 4.97208L8.79459 17.6285L6.41483 3.96959H2.90782L6.28958 20.3853C6.41483 21.1372 6.66533 21.2625 7.54208 21.2625H9.92184C10.6733 21.2625 10.9238 21.1372 11.1743 20.3853L13.8046 8.48078L16.4349 20.3853C16.5601 21.1372 16.8106 21.2625 17.6874 21.2625H19.9419C20.6934 21.2625 21.0691 21.1372 21.1944 20.3853L24.2004 3.96959ZM25.9539 25.085H0.903809V0.0849609H25.8918V25.085H25.9539Z" fill="black" fill-opacity="0.2"/>
</svg>
